<?xml version="1.0" encoding="utf-8"?>
<!-- Generator: Adobe Illustrator 16.0.0, SVG Export Plug-In . SVG Version: 6.00 Build 0)  -->
<!DOCTYPE svg PUBLIC "-//W3C//DTD SVG 1.1//EN" "http://www.w3.org/Graphics/SVG/1.1/DTD/svg11.dtd">
<svg version="1.1" xmlns="http://www.w3.org/2000/svg" xmlns:xlink="http://www.w3.org/1999/xlink" x="0px" y="0px" width="200px"
	 height="200px" viewBox="0 0 200 200" enable-background="new 0 0 200 200" xml:space="preserve">
<g id="Layer_3">
</g>
<g id="Layer_2">
</g>
<g id="Layer_1">
	<g>
		<g>
			<g>
				<path fill="#BE1E2D" d="M50.842,111.947c5.115-1.264,7.637-5.027,8.97-9.912c0.849-3.111,1.018-6.366,1.836-9.494
					c0.962-3.678,2.635-7.185,3.976-10.734c0.909-2.406-2.519-4.144-4.178-2.432c-4.085,4.215-6.289,8.3-6.09,14.268
					c0.068,2.028,2.04,2.936,3.762,2.159c5.876-2.654,5.688-10.227,8.633-15.193c3.682-6.211,7.957-10.789,4.764-18.227
					c-1.162-2.708-5.174-0.708-4.569,1.926c0.792,3.45,3.705,4.791,6.746,6.032c-0.199-1.523-0.398-3.046-0.597-4.569
					c-0.476,0.298-0.952,0.595-1.428,0.893c-2.77,1.732-0.361,5.675,2.523,4.317c1.012-0.477,2.024-0.953,3.036-1.429
					c2.916-1.372,0.376-5.682-2.523-4.317c-1.012,0.476-2.024,0.952-3.036,1.429c0.841,1.439,1.682,2.878,2.523,4.317
					c0.476-0.298,0.952-0.595,1.428-0.893c1.981-1.239,1.357-3.772-0.597-4.569c-1.408-0.391-2.493-1.237-3.254-2.54
					c-1.523,0.642-3.046,1.284-4.569,1.926c2.477,5.771-3.757,11.019-6.138,15.668c-1.747,3.411-1.665,9.195-5.465,10.911
					c1.254,0.72,2.508,1.439,3.762,2.159c-0.155-4.639,1.456-7.462,4.625-10.732c-1.393-0.811-2.786-1.622-4.178-2.432
					c-1.964,5.199-4.165,10.179-5,15.714c-0.664,4.399-1.213,9.678-6.29,10.932C46.384,107.898,47.712,112.72,50.842,111.947
					L50.842,111.947z"/>
			</g>
		</g>
		<g>
			<g>
				<path fill="#BE1E2D" d="M94.987,63.806c-1.231,0.627-2.537,0.99-3.917,1.087c0.222,1.637,0.443,3.274,0.665,4.911
					c3.684-1.023,7.75-1.409,10.747-4.036c3.188-2.794,4.854-6.244,6.179-10.21c-1.638-0.222-3.274-0.443-4.911-0.665
					c-0.13,0.976-0.351,7.251-1.429,7.322c0.421,1.553,0.841,3.106,1.262,4.659c0.146-0.465,0.29-0.93,0.435-1.395
					c-0.347,1.865,1.118,3.56,3.076,3.075c2.052-0.507,3.895-0.211,5.942-0.089c2.731,0.163,3.071-3.319,1.262-4.659
					c-3.217-2.382-4.128-3.989-4.298-8.02c-0.138-3.27-4.692-3.167-5,0c-0.229,2.359-0.133,4.664,0.922,6.842
					c1.084,2.24,2.24,3.434,2.471,5.836c0.146,1.52,1.501,2.971,3.165,2.411c2.497-0.841,4.499-1.833,7.193-1.937
					c2.731-0.105,5.48,0.042,8.213,0.062c4.257,0.031,9.091-0.161,12.69-2.663c-1.254-0.72-2.508-1.439-3.762-2.159
					c-0.766,6.027,4.729,7.411,9.514,9.018c2.751,0.924,4.304-3.141,1.927-4.569c-1.544-0.928-4.882-1.657-5.012-3.913
					c-0.185-3.205-5.186-3.223-5,0c0.297,5.154,3.585,5.885,7.488,8.23c0.642-1.523,1.284-3.046,1.927-4.569
					c-2.284-0.768-6.221-1.228-5.844-4.197c0.234-1.848-2.311-3.167-3.762-2.159c-3.675,2.555-9.211,2.012-13.507,1.941
					c-5.065-0.083-8.656,0.497-13.396,2.093c1.056,0.804,2.11,1.607,3.165,2.411c-0.233-2.432,0.47-2.715-1.063-4.819
					c-1.821-2.5-2.632-4.735-2.329-7.859c-1.667,0-3.333,0-5,0c0.251,5.967,2.015,8.813,6.774,12.337
					c0.421-1.553,0.841-3.106,1.262-4.659c-2.564-0.153-4.769-0.352-7.272,0.268c1.025,1.025,2.051,2.05,3.076,3.075
					c0.871-4.676-4.104-6.975-7.78-4.251c-1.801,1.334-1.474,4.838,1.262,4.659c6.039-0.396,5.829-7.824,6.429-12.322
					c0.391-2.927-4.066-3.191-4.911-0.665c-1.161,3.478-2.528,6.337-5.642,8.476c-2.093,1.438-5.385,1.61-7.79,2.278
					c-2.648,0.735-2.209,5.17,0.665,4.911c2.327-0.21,4.316-0.81,6.44-1.77C100.445,66.798,97.901,62.49,94.987,63.806
					L94.987,63.806z"/>
			</g>
		</g>
		<g>
			<g>
				<path fill="#BE1E2D" d="M99.267,67.196c0.932-0.822,2.252-1.096,3.37-1.58c1.127-0.488,2.096-1.148,2.931-2.053
					c1.771-1.916,2.989-4.373,3.985-6.756c0.525-1.26-0.559-2.749-1.746-3.075c-1.44-0.396-2.551,0.49-3.076,1.746
					c-0.715,1.714-1.732,3.505-2.995,4.872c-0.646,0.7-1.695,0.952-2.556,1.276c-1.302,0.492-2.403,1.113-3.448,2.035
					C93.309,65.798,96.859,69.321,99.267,67.196L99.267,67.196z"/>
			</g>
		</g>
		<g>
			<g>
				<path fill="#BE1E2D" d="M84.983,29.524c-0.179,0.238-0.357,0.476-0.536,0.714c-1.08,1.44,0.36,3.977,2.159,3.762
					c3.821-0.458,7.239,1.975,9.48-2.488c-1.553-0.42-3.106-0.841-4.659-1.262c0.018,9.217,12.414,1.941,15.904-0.52
					c-1.14-1.14-2.28-2.28-3.42-3.42c-1.109,2.326-2.966,3.248-4.996,4.639c-1.847,1.265-1.485,3.812,0.597,4.569
					c3.277,1.192,3.991,4.308,4.503,7.361c0.399,2.376,4.463,2.417,4.822,0c0.609-4.109-0.119-8.24,0.535-12.322
					c-1.638-0.222-3.274-0.443-4.911-0.665c-0.219,3.082-0.261,5.904,0.625,8.879c0.484,1.624,2.963,2.661,4.179,1.103
					c2.021-2.59,3.711-4.86,6.815-6.216c2.59-1.131,0.719-5.56-1.927-4.569c-1.982,0.742-3.383,1.207-5.585,0.982
					c0.421,1.553,0.841,3.106,1.262,4.659c2.901-1.444,6.828-3.859,10.216-3.319c0-1.607,0-3.214,0-4.821
					c-1.787,0.403-3.258,0.853-4.882,1.68c-2.5,1.274-0.726,5.607,1.927,4.569c2.66-1.042,4.61-1.229,7.42-0.714
					c3.152,0.579,4.498-4.24,1.33-4.821c-3.61-0.663-6.633-0.635-10.08,0.714c0.643,1.523,1.285,3.046,1.927,4.569
					c1.177-0.568,2.405-0.96,3.688-1.176c2.312-0.521,2.475-4.427,0-4.821c-4.99-0.795-9.712,1.654-14.069,3.823
					c-2.446,1.218-0.977,4.43,1.262,4.659c2.478,0.253,4.583-0.288,6.915-1.161c-0.643-1.523-1.285-3.046-1.927-4.569
					c-3.479,1.519-5.535,4.061-7.827,6.998c1.393,0.368,2.785,0.735,4.179,1.103c-0.778-2.612-0.636-4.887-0.447-7.55
					c0.198-2.794-4.465-3.451-4.911-0.665c-0.658,4.112,0.074,8.217-0.535,12.322c1.607,0,3.215,0,4.822,0
					c-0.85-5.057-3.022-9.044-7.997-10.854c0.199,1.523,0.398,3.046,0.597,4.569c2.809-1.924,5.276-3.257,6.789-6.433
					c0.975-2.043-1.181-5-3.42-3.42c-1.157,0.816-2.364,1.548-3.59,2.255c-0.832,0.479-1.691,0.901-2.555,1.317
					c-0.623,0.287-1.265,0.525-1.923,0.714c-0.946,0.003-1.051,0.187-0.312,0.551c-0.005-2.389-3.512-3.546-4.659-1.262
					c-0.383,0.764-4.344-0.086-5.163,0.012c0.72,1.254,1.439,2.508,2.159,3.762c0.179-0.238,0.357-0.476,0.536-0.714
					C91.237,29.465,86.893,26.978,84.983,29.524L84.983,29.524z"/>
			</g>
		</g>
		<g>
			<g>
				<path fill="#BE1E2D" d="M26.12,113.197c7.954,1.949,12.273-7.052,14.966-12.935c1.332-2.909-2.977-5.452-4.317-2.523
					c-1.471,3.213-4.605,11.792-9.32,10.636C24.318,107.608,22.989,112.43,26.12,113.197L26.12,113.197z"/>
			</g>
		</g>
		<g>
			<g>
				<path fill="#BE1E2D" d="M24.653,137.23c2.867-1.469,5.962-3.143,7.907-5.808c2.498-3.422,3.553-7.532,5.312-11.339
					c-1.523-0.642-3.046-1.284-4.569-1.927c-1.458,8.209,1.08,23.454-7.78,27.971c1.14,1.14,2.28,2.28,3.42,3.42
					c2.88-6.234,2.93-13.255,7.426-18.681c3.197-3.857,6.726-7.152,8.183-12.095c0.802-2.722-3.193-4.413-4.569-1.927
					c-1.397,2.524-2.717,5.075-4.286,7.5c1.553,0.421,3.106,0.841,4.659,1.262c-0.298-2.383-0.966-6.079,1.053-7.875
					c-1.422-0.589-2.845-1.179-4.268-1.768c-0.372,7.335-1.223,14.379-2.285,21.632c-0.417,2.846-0.133,5.651-0.159,8.508
					c-0.028,3.167-1.724,5.744-3.464,8.241c-1.386,1.988,1.427,4.942,3.42,3.42c3.255-2.485,5.546-4.676,6.863-8.636
					c-1.637-0.222-3.274-0.443-4.911-0.665c0.157,1.591,0.231,2.211,0.804,3.7c1.164,3.024,5.342,1.857,4.821-1.33
					c-0.768-4.704,0.284-9.432,0.268-14.156c-0.01-2.932-3.994-3.26-4.911-0.665c-1.38,3.907-0.517,8.245,1.145,11.927
					c1.439-0.841,2.878-1.683,4.317-2.523c-2.999-6.614,0.091-15.785,3.036-21.94c1.376-2.877-2.819-5.407-4.317-2.523
					c-2.564,4.937-4.862,9.712-4.984,15.369c-0.047,2.173,2.765,3.321,4.268,1.768c2.705-2.795,3.297-6.327,3.911-10.045
					c0.914-5.542,4.315-9.569,7.696-13.884c1.965-2.507-1.547-6.071-3.535-3.535c-2.785,3.553-6.149,7.194-7.786,11.459
					c-1.483,3.865-0.824,9.371-3.821,12.47c1.422,0.589,2.845,1.179,4.268,1.768c0.102-4.734,2.165-8.732,4.302-12.846
					c-1.439-0.841-2.878-1.683-4.317-2.523c-3.836,8.018-6.901,18.463-3.036,26.987c1.331,2.935,5.632,0.389,4.317-2.523
					c-1.128-2.5-1.562-5.464-0.641-8.073c-1.637-0.222-3.274-0.443-4.911-0.665c0.018,5.229-0.94,10.274-0.089,15.486
					c1.607-0.443,3.214-0.887,4.821-1.33c-0.208-0.79-0.417-1.58-0.625-2.37c-0.274-2.775-3.986-3.444-4.911-0.665
					c-0.893,2.684-2.383,3.982-4.565,5.649c1.14,1.14,2.28,2.28,3.42,3.42c3.527-5.061,4.274-9.353,4.021-15.444
					c-0.167-4.048,1.191-8.234,1.691-12.256c0.543-4.374,0.656-8.806,0.879-13.204c0.117-2.315-2.742-3.124-4.268-1.768
					c-3.143,2.793-2.999,7.565-2.518,11.41c0.3,2.399,3.211,3.499,4.659,1.262c1.568-2.425,2.888-4.976,4.286-7.5
					c-1.523-0.642-3.046-1.284-4.569-1.927c-1.471,4.989-5.924,8.522-9.005,12.552c-3.762,4.921-3.564,11.542-6.1,17.03
					c-1.047,2.267,1.087,4.609,3.42,3.42c10.903-5.558,8.31-21.002,10.078-30.957c0.46-2.595-3.298-4.677-4.569-1.927
					c-1.332,2.883-2.335,5.896-3.683,8.771c-1.547,3.302-4.647,4.996-7.742,6.583C19.26,134.385,21.79,138.699,24.653,137.23
					L24.653,137.23z"/>
			</g>
		</g>
		<g>
			<g>
				<path fill="#BE1E2D" d="M135.584,116.233c3.096,0.803,3.43,3.003,3.522,5.803c0.107,3.259,4.739,3.181,5,0
					c0.206-2.521,0.606-4.837,1.518-7.192c-1.607-0.443-3.215-0.887-4.822-1.33c-1.134,6.638-1.144,13.28-2.499,19.911
					c-0.479,2.345-0.864,4.848-0.539,7.231c0.32,2.345,1.021,2.04,2.432,3.505c1.894,1.967,4.537-0.132,4.179-2.433
					c-0.216-1.378-0.305-2.764-0.268-4.156c-0.019-2.252-2.675-3.215-4.268-1.768c-1.845,1.675-4.633,3.516-5.326,6.089
					c-1.037,3.852,0.508,8.09,1.825,11.7c0.804-1.056,1.607-2.11,2.411-3.165c-2.675,0.039-10.83-0.677-11.339-4.058
					c-0.4-2.659-4.096-2.092-4.822,0c-1.688,4.868-1.458,9.871-0.714,14.901c0.582-1.025,1.164-2.051,1.746-3.076
					c-8.255,2.062-13.301-8.562-21.072-6.785c-1.877,0.43-2.364,2.881-1.103,4.179c2.12,2.184,0.601,7.397,0.875,10.196
					c1.055-0.804,2.109-1.607,3.165-2.411c-2.984-1.167-7.566-1.676-8.969-5.04c-0.383,0.941-0.766,1.883-1.149,2.823
					c2.246-1.448,4.9-1.893,7.143-3.393c2.822-1.886,4.598-4.999,6.756-7.533c1.401-1.646,0.518-4.197-1.768-4.268
					c-4.7-0.146-9.771,3.681-11.98,7.667c-1.147,2.07,0.72,4.005,2.823,3.673c3.215-0.508,5.569-2.138,7.879-4.357
					c1.301-1.25,2.422-2.713,3.6-4.075c1.753-2.027,4.155-3.459,6.246-5.127c1.654-1.32,2.58-3.343,4.751-3.915
					c1.551-0.409,3.302-0.302,4.889-0.287c3.425,0.032,6.921,0.468,10.234,1.333c-0.367-1.394-0.735-2.786-1.103-4.179
					c-3.744,4.568-6.987,9.701-1.102,13.926c1.442,1.036,3.122-0.137,3.673-1.493c2.961-7.3-13.447-14.241-17.248-7.463
					c-5.46,9.735,10.428,10.907,15.176,5.173c1.143-1.38,0.862-3.688-1.103-4.179c-4.483-1.116-9.729-0.662-11.647,4.067
					c-0.899,2.222,1.939,3.694,3.673,2.823c4.421-2.22,5.108-8.426,1.182-11.39c-5.741-4.334-12.337,6.832-13.783,10.709
					c-0.523,1.406,0.862,3.364,2.411,3.165c3.1-0.398,15.036-7.959,8.625-11.392c-6.795-3.64-12.563,6.805-13.536,12.155
					c-0.286,1.575,0.677,3.169,2.411,3.165c2.922-0.007,13.696-4.604,9.19-8.896c-4.29-4.088-11.881,0.811-13.626,5.261
					c-0.904,2.306,0.963,4.568,2.968,5.279c2.544,0.902,5.165-1.863,6.187-3.81c1.414-2.694,0.149-5.279-2.207-6.778
					c-3.121-1.986-6.909,1.159-9.101,3.069c-2.155,1.877,0.647,5.432,3.029,3.926c2.916-1.843,4.909-4.602,7.679-6.607
					c-1.254-0.719-2.508-1.438-3.762-2.158c-0.88,7-2.39,12.911,6.478,14.197c1.401,0.202,3.402-0.626,3.165-2.411
					c-0.231-1.736-0.663-3.451-0.893-5.179c-0.174-1.31-1.005-2.555-2.5-2.5c-8.863,0.323-28.843-1.42-20.909,13.048
					c1.551,2.827,5.869,0.305,4.317-2.523c-1.162-2.12-2.796-3.405,0.95-4.815c1.647-0.619,3.475-0.688,5.211-0.781
					c3.471-0.186,6.955,0.199,10.431,0.072c-0.833-0.833-1.667-1.667-2.5-2.5c0.231,1.736,0.663,3.451,0.893,5.179
					c1.055-0.804,2.109-1.607,3.165-2.411c-2.166-0.313-3.97-0.377-3.818-2.899c0.128-2.15,0.741-4.33,1.011-6.476
					c0.229-1.822-2.318-3.204-3.762-2.158c-2.756,1.995-4.804,4.789-7.679,6.607c1.01,1.309,2.02,2.617,3.029,3.926
					c0.49-0.427,3.164-1.795,3.076-1.627c0.91,0.818,1.729,0.715,2.456-0.312c0.672-0.416,1.388-0.737,2.146-0.964
					c1.362-0.466,0.609-2.057-0.94-1.044c-1.079,0.705-2.38,1.284-3.685,1.287c0.804,1.055,1.607,2.109,2.411,3.165
					c0.532-2.934,2.099-5.698,4.039-7.932c1.35-1.554,1.603-3.086-0.447-1.22c-0.812,0.739-2.351,1.909-3.503,2.058
					c0.804,1.055,1.607,2.109,2.411,3.165c0.881-2.365,2.358-4.411,4.066-6.245c2.556-2.742,3.474,0.132,1.189,1.279
					c1.224,0.94,2.448,1.882,3.673,2.823c0.646-1.595,4.33-0.866,5.495-0.575c-0.367-1.394-0.735-2.786-1.103-4.179
					c-1.005,1.214-7.989,2.951-7.836,1.916c0.505-3.402,9.376,0.719,8.621,2.579c1.225-0.498,2.449-0.995,3.673-1.493
					c-2.266-1.627,1.242-5.011,2.113-6.074c1.145-1.396,0.859-3.667-1.103-4.179c-5.792-1.51-13.639-2.767-19.366-0.536
					c-1.36,0.53-2.246,1.339-3.192,2.403c-1.872,2.104-4.088,3.555-6.231,5.349c-3.807,3.187-6.152,8.374-11.468,9.213
					c0.941,1.225,1.882,2.449,2.823,3.673c1.371-2.475,4.696-5.282,7.663-5.19c-0.589-1.423-1.179-2.845-1.768-4.268
					c-1.707,2.004-3.2,4.174-5.006,6.093c-2.059,2.188-5.411,2.458-7.881,4.052c-0.855,0.551-1.586,1.773-1.149,2.823
					c2.33,5.589,7.273,6.503,12.46,8.532c1.437,0.562,3.314-0.887,3.165-2.411c-0.459-4.677,1.312-9.972-2.34-13.731
					c-0.367,1.393-0.735,2.785-1.103,4.179c2.758-0.632,7.438,4.086,10.006,5.145c3.628,1.496,7.165,2.614,11.066,1.641
					c1.438-0.359,1.941-1.756,1.746-3.076c-0.614-4.146-0.674-8.243,0.714-12.241c-1.607,0-3.215,0-4.822,0
					c0.936,6.211,11.165,7.8,16.161,7.728c1.52-0.022,2.982-1.6,2.411-3.165c-0.894-2.446-1.705-5.023-2.051-7.615
					c-0.291-2.178,2.904-4.072,4.265-5.309c-1.423-0.589-2.845-1.179-4.268-1.768c0.016,1.879,0.157,3.635,0.445,5.486
					c1.394-0.812,2.786-1.622,4.179-2.433c-1.201-1.248-1.055-0.569-1.083-2.042c-0.054-2.769,0.853-5.632,1.428-8.323
					c1.089-5.088,0.675-10.306,1.549-15.417c0.545-3.193-3.657-4.342-4.822-1.33c-1.075,2.782-1.453,5.565-1.695,8.522
					c1.667,0,3.333,0,5,0c-0.169-5.122-1.91-9.255-7.192-10.625C133.79,110.602,132.466,115.424,135.584,116.233L135.584,116.233z"
					/>
			</g>
		</g>
		<g>
			<g>
				<path fill="#BE1E2D" d="M40.802,120.022c0.52-3.144,0.382-6.354,1.072-9.464c0.545-2.456-2.307-4.164-4.178-2.433
					c-4.279,3.96-5.293,8.592-4.393,14.218c0.208,1.3,1.886,2.14,3.075,1.746c7.101-2.351,9.302-10.692,12.387-16.685
					c1.47-2.855-2.654-5.305-4.317-2.523c-2.893,4.835-7.864,8.774-6.502,14.962c0.318,1.445,1.786,1.938,3.075,1.746
					c4.494-0.669,7.56-4.789,10.121-8.172c3.391-4.479,6.011-9.282,7.697-14.646c0.529-1.684-1.29-3.792-3.075-3.075
					c-7.134,2.867-14.936,7.155-20.746,12.25c-1.905,1.671,0.102,4.88,2.432,4.179c5.064-1.525,9.368-4.534,13.633-7.574
					c-1.01-1.309-2.02-2.617-3.029-3.926c-0.417,0.535-0.833,1.07-1.25,1.606c-1.572,2.02,0.573,5.812,3.029,3.926
					c3.06-2.349,6.566-8.803,1.429-11.281c-2.097-1.011-3.7-1.293-5.85-0.311c-2.014,0.92-2.299,3.609-3.995,4.775
					c-2.71,1.863-0.4,5.569,2.523,4.317c2.826-1.209,5.586-2.532,8.51-3.497c-0.642-1.523-1.284-3.046-1.926-4.569
					c-2.221,1.056-4.269,2.4-6.429,3.572c-1.987,1.078-4.065,1.485-5.893,2.857c1.224,0.94,2.448,1.882,3.672,2.823
					c0.854-2.856,0.103-7.739,3.161-9.09c2.391-1.056,4.083-2.503,6.017-4.231c4.568-4.083,5.738-8.065,7.251-13.822
					c0.7-2.663-3.357-4.567-4.569-1.926c-1.549,3.375-1.022,13.837-4.756,15.28c0.642,1.523,1.284,3.046,1.926,4.569
					c3.184-2.237,5.618-5.052,7.73-8.302c2.271-3.493,1.353-6.159,0.383-9.878c-0.555-2.13-3.467-2.419-4.569-0.597
					c-3.15,5.207-7.625,17.118-2.645,22.315c0.736,0.769,2.122,1.007,3.029,0.391c4.591-3.117,7.45-8.982,9.006-14.172
					c0.881-2.938-2.958-4.02-4.569-1.926c-3.227,4.194-5.895,8.468-4.538,13.89c0.455,1.819,2.885,2.434,4.178,1.103
					c4.982-5.123,6.067-13.206,6.09-19.981c-1.422,0.589-2.845,1.179-4.268,1.768c1.648,1.432,4.983,2.732,6.75,0.536
					c1.971-2.45,0.547-7.987,3.244-9.252c-1.254-0.72-2.508-1.439-3.762-2.159c-0.06,0.774-0.119,1.547-0.179,2.321
					c-0.137,1.774,1.688,2.639,3.165,2.411c1.757-0.272,2.928-0.997,4.317-2.071c2.548-1.97-1.019-5.481-3.535-3.535
					c-0.704,0.262-1.408,0.523-2.111,0.785c1.055,0.804,2.11,1.607,3.165,2.411c0.06-0.774,0.119-1.547,0.179-2.321
					c0.158-2.057-2.2-2.892-3.762-2.159c-1.563,0.733-2.927,1.817-3.473,3.542c-0.318,1.005-1.411,5.132-0.462,5.957
					c-1.603-1.392-4.26-0.525-4.268,1.768c-0.018,5.385-0.605,12.312-4.625,16.446c1.393,0.368,2.786,0.735,4.178,1.103
					c-0.984-3.935,1.815-7.153,4.034-10.038c-1.523-0.642-3.046-1.284-4.569-1.926c-1.137,3.792-3.32,8.883-6.708,11.184
					c1.01,0.13,2.02,0.261,3.029,0.391c-2.822-2.946,1.671-13.354,3.427-16.256c-1.523-0.199-3.046-0.398-4.569-0.597
					c1.418,5.44-1.344,9.392-5.815,12.534c-2.162,1.519-0.889,5.657,1.926,4.569c7.467-2.885,5.02-11.643,7.744-17.578
					c-1.523-0.642-3.046-1.284-4.569-1.926c-0.926,3.524-1.278,6.659-3.786,9.516c-1.986,2.264-4.416,4.373-7.184,5.549
					c-5.621,2.387-3.992,7.175-5.458,12.077c-0.583,1.951,1.864,4.182,3.672,2.823c1.765-1.324,3.923-1.887,5.893-2.856
					c2.205-1.084,4.206-2.514,6.429-3.571c2.568-1.221,0.747-5.452-1.926-4.569c-3.334,1.1-6.48,2.622-9.704,4.001
					c0.841,1.439,1.682,2.878,2.523,4.317c1.036-0.712,1.733-1.482,2.468-2.498c0.301-0.472,0.598-0.946,0.89-1.423
					c0.922-1.489,2.309,0.34,0.011,2.104c1.01,1.309,2.02,2.617,3.029,3.926c0.417-0.535,0.833-1.07,1.25-1.606
					c1.585-2.037-0.506-5.724-3.029-3.926c-3.883,2.767-7.821,5.679-12.438,7.069c0.811,1.394,1.622,2.786,2.432,4.179
					c5.08-4.455,12.309-8.46,18.54-10.964c-1.025-1.025-2.05-2.05-3.075-3.075c-1.794,5.708-7.454,18.303-14.326,19.325
					c1.025,0.582,2.05,1.164,3.075,1.746c-0.874-3.969,4.127-7.981,5.998-11.108c-1.439-0.841-2.878-1.683-4.317-2.523
					c-2.227,4.325-4.281,12.692-9.398,14.386c1.025,0.582,2.05,1.164,3.075,1.746c-0.621-3.881,0.215-6.676,3.107-9.353
					c-1.393-0.811-2.786-1.621-4.178-2.433c-0.696,3.136-0.55,6.308-1.072,9.464C35.46,121.846,40.277,123.197,40.802,120.022
					L40.802,120.022z"/>
			</g>
		</g>
		<g>
			<g>
				<path fill="#00A79D" d="M39.554,184.326c0.494-0.72,0.988-1.44,1.482-2.16c3.762,2.158,7.523,4.317,11.285,6.476
					c0.179-1.639,1.07-3.303,1.339-4.97c1.374-8.511-8.59-12.817-13.708-5.779c-0.204,0.268-0.409,0.535-0.613,0.803
					c3.926,3.03,7.853,6.06,11.779,9.089c2.62-5.684,1.921-11.34,3.248-17.271c1.575-7.042,1.974-14.134,2.623-21.305
					c0.629-6.95,1.281-13.83,4.581-20.077c3.185-6.026,7.527-11.167,9.947-17.603c2.223-5.911-5.838-12.35-11.017-8.47
					c-0.238,0.178-0.477,0.356-0.714,0.535c3.762,2.158,7.523,4.317,11.285,6.476c-0.018-0.701,1.427-3.788,2.19-5.321
					c2.108-4.237,4.183-8.45,6.14-12.759c1-2.203,1.907-6.204,3.967-7.613c2.813-1.922,5.921-3.436,7.572-6.593
					c-3.926,0.506-7.853,1.012-11.779,1.518c5.096,4.569,11.329,3.364,17.52,2.33c5.876-0.982,13.209,2.51,19.718,3.885
					c3.792,0.801,7.772,0.175,11.613,0.322c3.434,0.131,5.357,0.616,8.401,2.17c3.544,1.809,7.501,2.504,11.275,3.672
					c2.777,0.86,6.854,0.921,9.24,2.544c-0.897-3.42-1.794-6.841-2.69-10.261c0.837-1.11-0.707-0.236-1.509-0.16
					c-1.624,0.154-3.28,0.063-4.906,0c-4.715-0.185-9.429-0.384-14.139-0.663c-9.68-0.575-19.73-0.007-29.19-2.205
					c-7.884-1.831-20.086-4.713-25.063,4.103c-2.125,3.765-2.589,7.913-5,11.558c-2.714,4.105-6.178,7.572-7.199,12.551
					c-1.267,6.178,5.062,12.097,11.017,8.47c4.675-2.847,8.507-6.605,12.483-10.318c4.496-4.199,10.278-6.572,14.75-10.854
					c-3.536-3.536-7.071-7.071-10.607-10.606c-3.166,3.229-5.379,6.457-7.107,10.631c-2.84,6.856,7.939,12.991,12.535,7.297
					c4.117-5.1,8.681-9.633,13.037-14.464c1.929-2.14,2.452-4.775,4.861-6.536c2.27-1.659,4.669-1.725,7.391-1.658
					c3.219,0.079,6.271,1.642,8.949,3.273c2.842,1.731,6.199,1.882,8.995,3.415c5.5,3.016,6.446,8.73,10.981,12.577
					c2.433-4.178,4.865-8.357,7.298-12.535c-1.374-0.217-2.737-0.478-4.107-0.714c-9.491-1.639-13.181,11.196-3.988,14.464
					c6.649,2.364,12.477,3.499,19.524,2.5c3.246-0.46,5.506-4.221,5.506-7.232c0-3.63-2.358-5.961-5.506-7.232
					c-15.615-6.302-30.773-4.509-47.122-3.321c-7.397,0.538-16.485-0.876-23.474,1.893c-3.703,1.468-5.961,4.436-9.099,6.69
					c-3.035,2.181-6.082,4.313-8.674,7.023c-5.044,5.271-0.089,14.801,7.297,12.536c3.346-1.026,6.989-1.09,10.423-1.938
					c4.006-0.988,7.805-2.755,11.627-4.269c7.339-2.907,15.24-1.199,22.771-2.901c-1.329-4.821-2.659-9.643-3.988-14.464
					c-6.048,1.402-12.048,2.89-17.854,5.113c-4.872,1.865-11.409,3.282-14.918,7.351c-4.694,5.442-0.337,14.729,7.297,12.536
					c5.962-1.713,11.551-4.414,17.534-6.098c6.758-1.899,13.532-3.729,20.322-5.51c-1.927-4.569-3.854-9.139-5.779-13.708
					c-3.238,2.026-6.363,4.199-9.464,6.428c-2.737,1.968-5.743,3.352-7.947,5.995c-4.943,5.929-0.258,13.86,7.298,12.536
					c2.949-0.518,5.566-1.185,8.542-1.519c3.186-0.357,6.123-2.562,8.572-2.536c6.314,0.066,12.367,0.255,17.088-4.66
					c4.51-4.696,1.325-12.775-5.304-12.804c-9.463-0.041-19.439,2.799-28.788,4.231c-9.723,1.489-19.23,4.79-28.974,5.917
					c-3.818,0.441-7.587-0.339-11.385,0.023c-5.216,0.499-9.345,3.479-13.686,6.153c-8.081,4.979-17.222,8.47-24.613,14.442
					c-3.185,2.573-2.661,7.946,0,10.607c3.127,3.127,7.418,2.552,10.606,0c2.675-2.143,4.498-5.104,6.352-7.947
					c-4.569-1.926-9.139-3.853-13.708-5.779c-3.159,9.356-2.422,20.306-3.16,30.074c-0.424,5.622-0.579,11.264-1.121,16.875
					c-0.242,2.516-0.49,5.021-0.631,7.545c0.009,0.537,0.023,1.075,0.042,1.612c0.118,3.938-1.142,0.53,2.56-1.759
					c1.262-0.341,2.523-0.683,3.785-1.023c-0.224-0.027-0.448-0.054-0.672-0.08c-3.333-0.396-6.33,2.595-7.232,5.506
					c-0.35,1.128-0.638,2.18-1.208,3.209c-4.694,8.466,8.262,16.03,12.952,7.57c1.201-2.167,1.99-4.435,2.72-6.791
					c-2.411,1.835-4.821,3.671-7.232,5.506c5.499,0.652,8.68-4.391,9.2-9.15c0.573-5.24,0.624-10.634,1.051-15.91
					c0.555-6.854,0.845-13.745,1.35-20.607c0.456-6.197,0.054-12.646,2.06-18.588c2.833-8.392-9.241-12.633-13.708-5.779
					c-1.22,1.872-2.245,3.5-4.006,4.91c3.536,3.536,7.071,7.071,10.606,10.607c2.815-2.275,6.335-3.701,9.574-5.251
					c4.157-1.989,8.08-4.44,12.004-6.847c2.587-1.586,5.38-4.217,8.524-4.222c4.312-0.006,8.323,0.273,12.644-0.369
					c8.579-1.276,16.927-3.866,25.477-5.371c5.071-0.893,10.184-1.558,15.271-2.352c4.419-0.689,8.86-1.983,13.346-1.964
					c-1.768-4.268-3.535-8.536-5.304-12.803c-0.808,0.841-2.826,0.398-3.915,0.369c-2.845-0.076-5.419-0.098-8.234,0.479
					c-2.299,0.471-3.524,2.139-5.894,2.087c-3.358-0.073-6.301,1.354-9.54,1.921c2.433,4.179,4.865,8.357,7.298,12.536
					c1.36-1.632,3.157-2.483,4.91-3.65c3.18-2.114,6.223-4.399,9.464-6.428c7.19-4.498,2.565-15.897-5.779-13.708
					c-6.239,1.637-12.466,3.316-18.679,5.051c-6.541,1.825-12.671,4.688-19.178,6.556c2.433,4.179,4.865,8.357,7.298,12.536
					c0.742-0.861,1.965-1.016,3.094-1.36c2.323-0.709,4.503-1.865,6.77-2.733c5.259-2.013,10.818-3.245,16.291-4.514
					c9.429-2.186,5.427-16.592-3.988-14.464c-2.876,0.65-6.117,0.321-9.065,0.464c-4.057,0.197-8.118,0.804-12.032,1.879
					c-3.972,1.091-7.72,3.064-11.642,4.347c-3.961,1.295-8.134,1.207-12.081,2.417c2.432,4.178,4.865,8.357,7.297,12.536
					c1.731-1.81,3.6-3.234,5.638-4.678c1.322-0.937,2.828-1.89,4.005-3.001c0.739-0.698,1.856-2.314,2.796-2.688
					c2.454-0.973,6.032-0.276,8.635-0.343c3.831-0.099,7.658-0.365,11.479-0.644c7.358-0.535,14.725-1.527,22.111-1.438
					c6.64,0.08,12.993,1.893,19.109,4.361c0-4.821,0-9.643,0-14.464c-3.963,0.562-7.905-1.205-11.548-2.5
					c-1.329,4.821-2.659,9.643-3.988,14.464c1.371,0.236,2.734,0.497,4.107,0.715c6.594,1.042,13.662-7.136,7.298-12.536
					c-2.445-2.074-3.238-5.409-5.357-7.857c-2.752-3.178-6.46-5.859-10.137-7.875c-1.497-0.821-3.159-1.172-4.811-1.504
					c-2.035-0.409-3.682-1.727-5.499-2.687c-4.322-2.285-8.905-3.284-13.729-3.736c-8.067-0.755-15.308,2.947-20.717,8.659
					c-1.146,1.211-1.931,2.647-2.601,4.15c-0.641,1.438-2.372,2.433-3.47,3.528c-3.291,3.281-6.192,7.102-9.107,10.714
					c4.178,2.432,8.357,4.865,12.536,7.297c0.656-1.585,2.083-2.822,3.25-4.012c6.783-6.919-3.622-17.296-10.607-10.606
					c-3.645,3.49-8.447,5.497-12.322,8.75c-3.991,3.35-7.399,7.351-11.875,10.078c3.672,2.823,7.345,5.646,11.017,8.47
					c0.761-3.712,4.462-7.115,6.543-10.262c1.223-1.85,2.002-3.942,2.812-5.992c0.306-0.958,0.566-1.93,0.781-2.912
					c0.526-1.352,0.527-1.558,0.004-0.617c-1.869,0.693-1.725,0.901,0.433,0.624c1.058,0.009,2.106,0.112,3.144,0.31
					c2.284,0.375,4.54,0.985,6.792,1.508c5.077,1.179,10.147,1.627,15.347,1.551c9.656-0.142,19.489,0.877,29.134,1.399
					c8.022,0.435,15.391-0.436,20.503-7.211c2.584-3.424,0.376-8.176-2.69-10.261c-2.507-1.705-5.468-2.305-8.397-2.855
					c-3.812-0.716-7.461-2.223-11.25-3.08c-3.019-0.683-5.836-2.86-8.83-3.819c-3.387-1.084-7.54-0.696-11.057-0.769
					c-3.961-0.083-6.851-0.204-10.702-1.298c-3.543-1.006-7.206-2.567-10.87-2.953c-3.235-0.341-6.548,0.05-9.756,0.528
					c-1.048,0.156-2.092,0.333-3.137,0.507c-2.603,0.434-3.148-1.005-0.732,1.162c-3.438-3.083-9.433-2.969-11.779,1.518
					c1.23-0.974,1.207-1.012-0.069-0.115c-0.709,0.438-1.417,0.88-2.121,1.326c-1.495,0.94-2.928,2.056-4.137,3.342
					c-3.175,3.376-4.824,8.568-6.572,12.774c-2.918,7.019-9.218,14.575-9.018,22.529c0.129,5.14,6.492,10.067,11.285,6.476
					c0.238-0.178,0.477-0.356,0.714-0.535c-3.672-2.823-7.345-5.646-11.017-8.47c-2.068,5.499-6.47,10.302-9.224,15.514
					c-3.15,5.961-4.227,12.272-5.046,18.888c-0.804,6.496-0.911,13.109-1.823,19.58c-0.491,3.48-1.58,6.84-2.033,10.334
					c-0.332,2.559,0.33,5.989-0.762,8.357c-3.301,7.161,6.003,16.164,11.779,9.089c1.024-1.255,2.006-2.53,2.958-3.84
					c-4.569-1.926-9.139-3.853-13.708-5.779c-0.493,3.052-1.537,5.853-1.875,8.958c-0.646,5.921,6.767,8.992,11.285,6.476
					c2.87-1.598,4.311-3.762,5.411-6.803C57.318,179.196,42.819,175.305,39.554,184.326L39.554,184.326z"/>
			</g>
		</g>
		<g>
			<g>
				<path fill="#00A79D" d="M70.047,193.677c3.805-7.304,2.893-14.675,2.708-22.634c-0.171-7.357-0.616-14.996,0.927-22.235
					c1.021-4.786,3.353-11.411,7.887-13.949c1.918-1.074,3.915-2.011,5.921-2.905c0.739-0.329,1.552-0.556,2.32-0.811
					c3.335-1.106,0.816,0.73-2.435-2.019c2.681,2.267,5.906,2.873,9.088,1.172c4.791-2.56,11.849-0.533,17.113-1.041
					c2.673-0.258,10.109-3.861,11.555-1.828c1.972,2.774,5.005,4.399,8.47,3.447c2.904-0.8,5.927-3.982,5.506-7.232
					c-0.718-5.54-2.846-9.206-8.363-10.982c-5.99-1.927-12.3,5.616-8.47,11.018c0.653,0.922,2.473,2.588,2.607,3.409
					c0-1.329,0-2.658,0-3.987c-0.109,0.29-0.219,0.58-0.328,0.87c1.149-1.494,2.298-2.988,3.447-4.481
					c1.264-0.899-0.665-0.078-1.577-0.047c-1.787,0.062-3.519,0.068-5.298,0.275c-5.381,0.626-11.094,1.336-16.453,0.265
					c0,4.821,0,9.644,0,14.465c5.028-1.24,8.851,1.875,13.8,1.875c2.211,0.001,4.269-0.945,6.453-1.029
					c2.322-0.088,4.646,0.672,6.646,1.791c4.979,2.788,11.224-0.729,11.285-6.476c0.103-9.557-7.227-13.531-15.122-16.528
					c-7.495-2.845-16.345-3.87-23.809-0.454c-8.098,3.705-15.381,11.385-22.047,17.196c-3.517,3.065-7.103,6.119-10.367,9.455
					c-3.049,3.115-4.22,7.209-6.816,10.562c-4.194,5.418-0.629,14.998,7.297,12.536c8.249-2.563,14.463-7.835,20.167-14.147
					c6.034-6.679,12.721-12.469,19.036-18.853c5.814-5.879-2.126-17.038-9.089-11.779c-4.293,3.241-7.209,7.196-10.182,11.639
					c-3.478,5.197-7.646,9.624-10.366,15.338c-2.119,4.452,0.283,12.11,6.476,11.285c5.593-0.745,9.483-3.285,13.485-7.185
					c3.996-3.894,8.231-7.966,11.562-12.424c1.989-2.662,1.01-6.906-1.172-9.089c-3.136-3.135-7.41-2.541-10.607,0
					c-2.198,1.747-4.009,3.158-5.458,5.626c-3.392,5.774,2.149,12.621,8.47,11.018c3.839-0.975,7.354-2.998,10.096-5.857
					c5.679-5.923-2.125-17.125-9.089-11.779c-3.698,2.838-6.229,6.374-9.554,9.565c-3.882,3.727-8.547,6.475-13.212,9.084
					c-6.624,3.705-13.737,10.708-14.699,18.541c0.341-1.262,0.683-2.523,1.024-3.785c-3.759,5.444-3.609,12.259-3.811,18.603
					c-0.179,5.634-1.961,11.511,1.847,16.468c4.336,5.645,13.798,4.283,13.976-3.785c0.072-3.262-0.924-6.387-0.714-9.644
					c-4.911,0.665-9.821,1.329-14.732,1.994c0.503,2.053,0.306,4.12,0.268,6.221c5,0,10,0,15,0c-0.184-2.245-0.571-4.471-0.91-6.697
					c-0.123-0.808-0.102-1.676-0.123-2.491c-0.059-2.336,0.717-0.182-1.076,0.843c-3.672-2.823-7.345-5.646-11.017-8.47
					c-0.417,2.655-0.389,5.229-0.625,7.887c-0.752,8.456,12.978,10.203,14.732,1.994c0.658-3.077,0.422-6.248,1.071-9.286
					c0.573-2.678,3.096-5.492,4.281-7.983c2.611-5.49,4.74-11.301,9.505-15.313c7.409-6.239-3.259-16.795-10.606-10.607
					c-5.37,4.523-8.403,10.848-11.273,17.104c-1.502,3.274-3.42,6.304-5.01,9.53c-2.058,4.175-1.5,8.21-2.431,12.567
					c4.911,0.665,9.821,1.329,14.732,1.994c0.112-1.264-0.105-2.664,0.089-3.898c0.981-6.239-4.821-12.013-11.017-8.47
					c-8.298,4.744-5.91,14.104-5.322,21.297c0.779,9.522,14.819,9.791,15,0c0.064-3.492,0.034-6.792-0.804-10.209
					c-2.103-8.58-14.207-6.158-14.732,1.994c-0.211,3.278,0.786,6.393,0.714,9.644c4.659-1.262,9.317-2.523,13.976-3.785
					c-1.202-1.564-0.456,0.71-0.494-1.595c-0.021-1.263,0.187-2.548,0.341-3.798c0.316-2.566,0.397-5.103,0.469-7.688
					c0.069-2.502,0.201-4.754,1.648-6.85c0.252-0.597,0.504-1.194,0.756-1.791c0.385-2.661,0.357-2.659-0.085,0.007
					c0.556-1.054,1.322-2.013,2.072-2.932c3.664-4.493,9.229-6.55,13.932-9.8c2.758-1.906,5.342-4.089,7.867-6.287
					c2.435-2.121,3.965-5.262,6.518-7.222c-3.029-3.926-6.059-7.853-9.089-11.779c-1.074,1.121-1.976,1.62-3.476,2
					c2.823,3.673,5.646,7.346,8.469,11.018c0.651-1.108,2.118-1.798,3.114-2.589c-3.927-3.03-7.854-6.06-11.78-9.089
					c-1.798,2.406-4.463,4.265-6.499,6.497c-1.198,1.313-2.417,2.597-3.691,3.838c-0.478,0.466-3.375,2.04-1.906,1.844
					c2.159,3.762,4.317,7.523,6.476,11.285c2.011-4.224,4.62-7.91,7.577-11.518c2.549-3.11,4.341-7.625,7.589-10.078
					c-3.029-3.926-6.059-7.853-9.088-11.779c-5.586,5.647-11.754,10.588-17.016,16.567c-4.446,5.053-8.922,10.511-15.567,12.575
					c2.432,4.179,4.865,8.357,7.297,12.536c3.667-4.737,5.836-9.879,10.357-13.929c5.451-4.883,10.931-9.716,16.591-14.355
					c4.409-3.614,7.71-6.908,13.625-6.649c2.658,0.117,5.386,1.162,7.872,2.03c1.151,0.402,2.25,0.892,3.359,1.396
					c2.22,1.013,0.761-0.32,0.75,0.668c3.762-2.158,7.523-4.317,11.285-6.476c-6.124-3.43-13.201-4.66-20.065-3.078
					c-3.211,0.741,0.781,0.82-1.691,0c-1.821-0.604-3.374-1.293-5.293-1.616c-3.85-0.646-7.627-0.388-11.408,0.544
					c-6.984,1.722-7.37,12.992,0,14.465c9.253,1.849,18.68,0.483,27.998-0.116c4.568-0.295,8.602-1.774,10.336-6.372
					c1.881-4.988-1.158-8.135-3.793-11.851c-2.823,3.672-5.646,7.345-8.47,11.018c-0.598-0.337-1.196-0.674-1.795-1.011
					c-0.341-1.262-0.683-2.523-1.023-3.785c0.057,0.438,0.113,0.876,0.17,1.313c4.658-1.262,9.317-2.523,13.976-3.785
					c-5.471-7.699-12.251-9.387-21.123-6.721c-9.35,2.809-19.081-0.594-28.066,4.209c3.029,0.391,6.059,0.781,9.088,1.172
					c-5.624-4.756-12.096-2.045-18.062,0.485c-6.545,2.773-11.464,6.514-15.309,12.601c-4.623,7.318-6.378,15.951-6.863,24.471
					c-0.282,4.965-0.075,10,0.007,14.97c0.077,4.646,1.569,10.782-0.661,15.063C52.632,194.673,65.577,202.258,70.047,193.677
					L70.047,193.677z"/>
			</g>
		</g>
		<g>
			<g>
				<path fill="#FFFFFF" d="M76.756,32.839c-11.138,2.638-11.006,17.566-7.415,25.917c5.182,12.05,23.604,10.996,32.034,3.404
					c-3.536,0-7.071,0-10.607,0c0.417,0.477,0.833,0.953,1.25,1.429c3.234,3.695,9.438,2.43,11.779-1.518
					c3.244-5.468,4.184-12.979,2.118-19.016c-2.889-8.445-12.492-11.73-20.37-7.897c-6.773,3.295-12.474,13.862-6.093,20.243
					c7.458,7.458,17.021-1.424,18.852-9.05c2.257-9.402-12.207-13.391-14.464-3.987c-0.405,0.552-0.447,0.817-0.126,0.795
					c-0.977,2.263-0.492-0.443,1.594-0.268c1.262,0.341,2.523,0.683,3.785,1.024c-0.184-0.098-0.368-0.195-0.551-0.292
					c0.897,0.897,1.793,1.794,2.69,2.691c1.861,2.558-0.286,4.326,0.574,2.593c0.118-0.238,0.299-0.302,0.525-0.378
					c0.053-0.018,0.405,0.065,0.268-0.01c-0.371-0.364-0.741-0.729-1.111-1.093c0.445,0.767,0.522,0.9,0.233,0.4
					c0.663,1.938-0.122,5.407-0.874,6.675c3.926-0.506,7.853-1.012,11.78-1.518c-0.417-0.476-0.834-0.953-1.25-1.429
					c-2.793-3.193-7.729-2.592-10.607,0c-0.58,0.522-4.254,1.229-5.894,1.523c-0.245,0.044-1.428-0.524-1.873-0.756
					c-0.593-0.434-0.546-0.261,0.14,0.519c-0.223-0.333-0.418-0.681-0.585-1.044c0.688,1.346-0.243-1.334-0.32-1.695
					c0.197,0.922-0.109-1.735-0.115-2.104c0.002-0.545,0.03-1.089,0.082-1.631c-0.08,0.689-0.033,0.594,0.14-0.285
					c0.332-1.375-0.458,0.954-1.598,1.224C90.154,45.074,86.162,30.611,76.756,32.839L76.756,32.839z"/>
			</g>
		</g>
		<g>
			<g>
				<path fill="#FFFFFF" d="M116.394,29.488c-11.613,7.692-15.575,28.091-0.424,34.398c11.147,4.641,28.794-4.023,28.315-17.029
					c-0.454-12.346-19.632-15.552-25.118-4.941c-2.978,5.758-0.819,13.258,6.141,14.6c3.423,0.66,6.645-0.195,9.771-1.545
					c0.848-0.366,1.524-0.715,2.263-1.269c0.81-0.553,1.562-1.173,2.259-1.86c1.139-0.984,0.995-0.992-0.43-0.024
					c-1.927-0.252-3.853-0.504-5.779-0.756c-0.551-0.497-1.102-0.994-1.652-1.491c-0.342-1.262-0.683-2.523-1.024-3.785
					c0.131,2.614-1.931,3.276-4.494,3.839c-9.445,2.076-5.439,16.536,3.988,14.464c8.092-1.778,13.831-7.147,15.28-15.464
					c0.832-4.776-1.315-9.895-6.318-11.271c-4.483-1.233-7.097,1.67-10.099,3.92c-0.284,0.428-0.533,0.538-0.748,0.329
					c-3.908,0.663-2.899,3.626,3.027,8.889c-0.633,0.415-0.547,0.387,0.257-0.082c-0.443,0.243-1.366,0.207,0.169,0.142
					c-1.412,0.06-2.555-2.021-2.355-3.308c0.562-0.65,0.389-0.496-0.522,0.465c-0.627,0.628-1.771,1.024-2.549,1.416
					c-0.81,0.407-1.996,0.858-2.887,0.967c-0.478,0.009-0.954,0.026-1.431,0.051c-2.089-0.345-0.543,0.146-0.798-0.219
					c-1.547-2.214,0.924-6.287,2.729-7.483C131.987,37.126,124.483,24.129,116.394,29.488L116.394,29.488z"/>
			</g>
		</g>
		<g>
			<g>
				<path fill="#EF4136" d="M90.178,21.857c2.089-0.251,4.117-0.547,6.159-1.052c2.135-0.528,4.191,0.369,6.311,0.784
					c5.958,1.168,12.212,0.992,18.244,1.518c-2.5-2.5-5-5-7.5-7.5c1.066,8.751,10.468,14.555,18.75,15.357
					c7.083,0.687,9.147-8.379,5.304-12.803c-6.971-8.021-21.39-2.686-30.452-5.857c-9.155-3.204-13.056,11.291-3.988,14.464
					c4.401,1.54,9.132,1.846,13.762,1.972c2.446,0.066,4.894,0.028,7.34,0.082c0.703,0.039,1.405,0.067,2.109,0.084
					c2.231,0.072,1.057,0.362,0.622-0.138c1.769-4.268,3.536-8.536,5.304-12.803c0.876,0.092,0.779,0.006-0.29-0.258
					c-0.704-0.23-1.55-0.829-2.188-1.197c-1.147-0.662-1.834-1.158-2.22-2.059c0.341,1.262,0.683,2.523,1.023,3.785
					c-0.025-0.209-0.051-0.419-0.076-0.629c-0.53-4.348-3.031-7.11-7.5-7.5c-5.188-0.453-10.591-0.264-15.706-1.266
					c-2.761-0.542-5.388-1.184-8.222-1.234c-2.329-0.041-4.518,0.978-6.786,1.25c-4.058,0.487-7.5,3.043-7.5,7.5
					C82.678,18.076,86.109,22.346,90.178,21.857L90.178,21.857z"/>
			</g>
		</g>
		<g>
			<g>
				<path fill="#EF4136" d="M62.481,51.482c0.06-0.06,0.119-0.119,0.178-0.179c0.962-0.964,0.964-2.571,0-3.535
					c-0.962-0.962-2.573-0.965-3.535,0c-0.06,0.06-0.119,0.119-0.178,0.179c-0.962,0.964-0.964,2.571,0,3.535
					C59.908,52.445,61.519,52.447,62.481,51.482L62.481,51.482z"/>
			</g>
		</g>
		<g>
			<g>
				<path fill="#EF4136" d="M67.767,48.415c0.07-0.994,0.308-1.947,0.714-2.857c-1.607-0.443-3.214-0.886-4.821-1.329
					c-0.201,1.106-0.313,1.87-0.268,2.986c0.119,2.926,3.933,3.268,4.911,0.665c2.644-7.037,5.435-10.773,12.692-13.347
					c4.175-1.48,7.923-4.794,10.449-8.378c0.94-1.333-0.032-3.279-1.494-3.672c-2.643-0.71-5.398-0.263-8.034,0.276
					c-3.708,0.758-5.108,3.667-7.792,5.902c-2.259,1.88,0.624,5.231,3.029,3.926c2.631-1.428,4.745-3.511,6.974-5.482
					c1.062-0.94,3.233-3.483,3.419-1.218c0.09,1.098,0.18,2.161,0.399,3.242c0.335,1.65,2.33,2.202,3.672,1.494
					c2.336-1.231,4.303-2.537,5.897-4.647c1.022-1.354-0.107-3.226-1.494-3.672c-1.542-0.497-3.1-0.933-4.643-1.429
					c0.368,1.393,0.735,2.786,1.103,4.178c0.707-0.843,1.587,2.856,1.714,3.361c0.253,1.008,1.333,1.926,2.411,1.835
					c0.677-0.057,1.206-0.175,1.797-0.52c-1.254-0.72-2.508-1.439-3.762-2.159c0,0.714,0,1.429,0,2.143
					c0,2.309,2.665,3.138,4.268,1.768c2.085-1.782,10.629-5.003,6.624-9.374c-2.266-2.473-6.293-0.881-9.056-0.34
					c1.025,1.025,2.05,2.05,3.075,3.075c0.447-1.833,0.579-3.409,0.447-5.307c-0.223-3.198-5.224-3.22-5,0
					c0.205,1.338,0.115,2.664-0.268,3.978c-0.474,1.944,1.204,3.441,3.075,3.075c1.308-0.255,2.581-0.644,3.912-0.781
					c2.171-0.224-1.808-0.635-2.668-0.217c-1.397,0.679-2.5,1.351-3.675,2.355c1.422,0.589,2.845,1.178,4.268,1.768
					c0-0.714,0-1.429,0-2.143c0-1.896-2.124-3.115-3.762-2.159c0.242-0.054,0.484-0.108,0.726-0.163
					c0.804,0.612,1.607,1.224,2.411,1.835c-1.201-4.776-5.286-11.278-10.071-5.567c-1.219,1.454-0.787,3.57,1.103,4.178
					c1.543,0.497,3.1,0.932,4.643,1.429c-0.498-1.224-0.996-2.448-1.494-3.672c-0.988,1.308-2.685,2.105-4.103,2.853
					c1.224,0.498,2.448,0.996,3.672,1.494c-0.639-3.15-0.107-7.161-4.239-7.802c-5.504-0.854-9.67,5.978-13.898,8.272
					c1.01,1.309,2.02,2.618,3.029,3.926c3.432-2.857,5.773-6.287,10.961-4.893c-0.498-1.224-0.996-2.448-1.494-3.672
					c-3.671,5.207-9.162,5.959-14.28,8.936c-5.171,3.008-7.372,8.678-9.365,13.983c1.637,0.222,3.274,0.443,4.911,0.665
					c0.03-0.552,0.06-1.105,0.089-1.657c0.574-3.158-3.765-4.402-4.821-1.329c-0.406,0.911-0.645,1.863-0.714,2.857
					C62.452,50.239,67.27,51.593,67.767,48.415L67.767,48.415z"/>
			</g>
		</g>
		<g>
			<g>
				<path fill="#EF4136" d="M61.979,54.727c3.413-4.613,3.07-10.727,5.073-15.955c0.696-1.816-1.373-3.569-3.075-3.075
					c-4.698,1.362-5.891,4.477-7.103,8.889c-0.535,1.947,1.832,4.191,3.672,2.823c2.527-1.879,4.065-4.277,5.718-6.924
					c2.705-4.329,6.848-8.151,10.502-11.682c2.339-2.259-1.137-5.649-3.535-3.535c-2.039,1.796-3.163,4.012-4.355,6.425
					c-1.185,2.396-3.375,1.787-5.613,2.575c0.941,1.224,1.882,2.448,2.823,3.672c1.365-1.837,2.106-4.139,2.917-6.257
					c0.629-1.641,1.814-7.044,3.625-7.772c-1.055-0.804-2.11-1.607-3.165-2.411c-0.306,2.482-0.579,6.003,2.483,6.775
					c5.154,1.299,5.782-9.033,11.495-7.579c0-1.607,0-3.214,0-4.821c-1.927,0.596-3.513,1.541-5.24,2.573
					c1.14,1.14,2.28,2.28,3.42,3.42c2.021-3.007,4.435-5.399,5.788-8.812c0.631-1.592-0.938-3.094-2.411-3.165
					c-6.25-0.302-10.959,4.045-12.589,9.871c-0.754,2.694,3.255,4.484,4.569,1.926c1.158-2.251,2.235-4.525,3.572-6.68
					c1.94-3.128,5.819-2.906,9.042-3.421c2.383-0.381,2.411-4.469,0-4.821c-7.335-1.072-12.091,2.462-15.681,8.649
					c-1.622,2.794,2.7,5.311,4.317,2.523c2.289-3.944,5.059-7.078,10.034-6.351c0-1.607,0-3.214,0-4.821
					c-3.754,0.6-7.137,0.729-10.131,3.308c-2.605,2.244-3.942,6.118-5.471,9.091c1.523,0.642,3.046,1.284,4.569,1.926
					c1.057-3.776,3.7-6.396,7.768-6.2c-0.804-1.055-1.607-2.11-2.411-3.165c-1.141,2.877-3.574,5.073-5.284,7.617
					c-1.428,2.125,1.34,4.665,3.42,3.42c1.339-0.801,2.53-1.6,4.045-2.069c2.301-0.712,2.472-4.192,0-4.821
					c-3.03-0.771-5.344-0.137-7.825,1.744c-1.239,0.94-2.217,2.11-3.187,3.314c-0.373,0.478-0.738,0.96-1.097,1.448
					c0.532,0.448,1.064,0.896,1.597,1.344c0.021-0.746,0.089-1.488,0.205-2.225c0.187-1.519-1.757-2.977-3.165-2.411
					c-6.168,2.481-5.997,11.57-9.53,16.327c-1.303,1.754,0.851,4.367,2.823,3.672c2.168-0.763,4.332-0.332,6.267-1.732
					c2.841-2.057,3.246-6.207,5.908-8.553c-1.178-1.178-2.357-2.357-3.535-3.535c-2.92,2.82-5.662,5.785-8.326,8.848
					c-2.393,2.751-3.97,6.81-6.883,8.976c1.224,0.941,2.448,1.882,3.672,2.823c0.665-2.417,0.876-4.604,3.611-5.397
					c-1.025-1.025-2.05-2.05-3.075-3.075c-1.823,4.757-1.493,10.602-4.569,14.76C55.741,54.799,60.084,57.288,61.979,54.727
					L61.979,54.727z"/>
			</g>
		</g>
		<g>
			<g>
				<path fill="#EF4136" d="M106.517,15.122c-0.583,2.523-0.473,5.109-0.169,7.662c0.288,2.417,0.552,5.263,2.279,7.125
					c3.397,3.664,7.361-2.022,9.955-3.572c2.765-1.651,0.251-5.976-2.523-4.317c-1.056,0.631-1.961,1.497-2.86,2.327
					c-0.431,0.397-0.869,0.786-1.319,1.162c-0.816,0.681-1.129,0.162,0.019,0.647c0.477,0.202-0.031-0.708-0.141-1.171
					c-0.221-0.929-0.37-1.877-0.483-2.825c-0.222-1.862-0.361-3.869,0.065-5.709C112.064,13.313,107.244,11.981,106.517,15.122
					L106.517,15.122z"/>
			</g>
		</g>
		<g>
			<g>
				<path fill="#EF4136" d="M125.892,28.107c0,0.417,0,0.833,0,1.25c0,1.383,1.138,2.473,2.5,2.5
					c3.886,0.078,11.366,0.555,13.199,4.655c0.927,2.076,4.019,1.309,4.569-0.597c1.326-4.592-1.601-13.373-7.602-10.502
					c1.01,1.309,2.02,2.618,3.029,3.926c5.451-4.776-0.265-11.562-5.566-13.285c-2.59-0.842-3.897,2.399-2.433,4.178
					c1.672,2.03,2.45,4.631,3.895,6.815c1.341,2.03,3.09,3.117,4.033,5.653c0.784,2.105,3.269,2.413,4.569,0.597
					c2.289-3.193,0.839-6.287-1.071-9.309c-1.347-2.133-4.555-1.237-4.658,1.262c-0.241,5.792,4.71,9.789,4.643,15.357
					c1.637-0.222,3.273-0.443,4.911-0.665c-0.728-1.852-1.562-2.866-2.965-4.317c-1.668-1.727-5.056,0.027-4.179,2.432
					c1.544,4.23,2.935,7.432,2.138,12.06c-0.575,3.342-1.078,7.802-4.203,9.76c-1.321,0.828-1.721,2.798-0.506,3.926
					c0.232,0.423,0.464,0.845,0.696,1.268c0.208,1.8,1.986,3.223,3.762,2.159c0.298-0.179,0.596-0.357,0.894-0.536
					c-1.224-0.498-2.448-0.996-3.673-1.494c0.386,1.91,0.95,3.096,2.25,4.496c1.379,1.486,4.536,0.442,4.268-1.768
					c-0.168-1.378-1.347-4.929,0.369-5.698c-1.14-1.14-2.28-2.28-3.42-3.42c-0.487,1.029-0.835,1.833-1.146,2.918
					c-0.654,2.292,2.527,4.41,4.179,2.432c3.193-3.823,3.124-7.688,3.232-12.482c0.107-4.754,0.588-9.344-1.949-13.583
					c-1.652-2.763-5.977-0.25-4.316,2.523c1.811,3.026,1.435,6.391,1.293,9.761c-0.146,3.458,0.61,7.365-1.795,10.245
					c1.393,0.811,2.785,1.622,4.179,2.432c0.213-0.575,0.427-1.149,0.64-1.724c1.113-2.355-1.102-4.46-3.42-3.42
					c-4.236,1.9-3.307,6.232-2.846,10.016c1.423-0.589,2.845-1.179,4.268-1.768c-0.638-0.628-0.959-1.391-0.963-2.29
					c-0.321-1.589-2.357-2.283-3.673-1.494c-0.298,0.179-0.596,0.357-0.894,0.536c1.254,0.72,2.508,1.439,3.762,2.159
					c-0.234-2.028-0.65-3.4-2.161-4.803c-0.169,1.309-0.337,2.618-0.506,3.926c4.124-2.583,5.419-7.065,6.3-11.613
					c1.178-6.077,0.154-10.124-1.936-15.853c-1.394,0.811-2.786,1.622-4.179,2.432c0.698,0.594,1.258,1.297,1.678,2.111
					c0.992,2.527,4.875,2.319,4.911-0.665c0.068-5.709-4.872-9.833-4.643-15.357c-1.553,0.42-3.105,0.841-4.658,1.262
					c0.84,1.331,2.229,2.646,1.071,4.262c1.522,0.199,3.046,0.398,4.569,0.597c-0.868-2.332-1.175-4.428-3.306-5.998
					c-2.87-2.115-3.684-5.975-5.909-8.676c-0.811,1.393-1.621,2.786-2.433,4.178c1.116,0.363,5.623,2.947,3.361,4.929
					c-2.267,1.985,0.613,5.082,3.029,3.926c-0.789,0.377,0.657,3.469,0.256,4.855c1.523-0.199,3.047-0.398,4.569-0.597
					c-2.66-5.955-11.819-7.017-17.516-7.131c0.833,0.833,1.667,1.667,2.5,2.5c0-0.417,0-0.833,0-1.25
					C130.892,24.883,125.892,24.883,125.892,28.107L125.892,28.107z"/>
			</g>
		</g>
		<g>
			<g>
				<path fill="#BE1E2D" d="M107.868,38.302c2.098-1.311,4.07-2.775,6.432-3.576c2.642-0.895,5.938-2.276,8.735-1.975
					c3.204,0.345,3.171-4.659,0-5c-3.196-0.344-6.025,1.138-9.059,1.875c-3.239,0.787-5.85,2.621-8.632,4.359
					C102.617,35.688,105.125,40.016,107.868,38.302L107.868,38.302z"/>
			</g>
		</g>
		<g>
			<g>
				<path fill="#BE1E2D" d="M102.093,67.125c2.695-1.066,7.136-4.051,5.854-7.54c-0.471-1.278-1.679-2.13-3.076-1.746
					c-1.23,0.338-2.217,1.795-1.746,3.075c0.146,0.396,0.06-0.51,0.072-0.604c-0.071,0.252-0.038,0.206,0.099-0.138
					c-0.051,0.106-0.107,0.21-0.171,0.31c-0.313,0.532,0.349-0.385-0.083,0.111c-0.186,0.214-0.396,0.406-0.604,0.595
					c-0.048,0.043-0.613,0.489-0.177,0.159c-0.228,0.172-0.466,0.329-0.705,0.483c-0.219,0.141-0.445,0.269-0.674,0.394
					c-0.16,0.087-0.885,0.383-0.118,0.08c-1.266,0.5-2.137,1.654-1.746,3.075C99.349,66.586,100.823,67.627,102.093,67.125
					L102.093,67.125z"/>
			</g>
		</g>
		<g>
			<g>
				<path fill="#EF4136" d="M35.664,96.232c12.078-5.026,22.144-15.75,21.478-29.732c-0.096-2.022-2.745-3.514-4.268-1.768
					c-5.294,6.07-6.98,13.589-11.641,19.97c1.439,0.841,2.878,1.682,4.317,2.523c2.812-6.251,3.541-13.784,6.964-19.643
					c3.509-6.006,7.837-11.14,9.359-18.097c0.566-2.586-2.252-3.97-4.178-2.432c-4.473,3.571-2.576,9.933-5.57,14.256
					c1.553,0.42,3.106,0.841,4.659,1.262c0.21-2.843,0.634-5.439,1.696-8.085c1.053-2.624-3.451-4.516-4.569-1.926
					c-1.617,3.745-3.259,7.342-6.038,10.387c-1.706,1.869-3.789,5.079-6.397,5.607c0.443,1.607,0.886,3.214,1.329,4.821
					c2.275-0.658,4.736-1.031,6.878-2.08c3.192-1.562,5.627-4.142,8.719-5.851c-1.254-0.72-2.508-1.439-3.762-2.159
					c0.087,4.597,0.963,9.69,2.411,14.057c0.855,2.579,5.058,2.27,4.911-0.665c-0.06-1.19-0.119-2.381-0.179-3.571
					c-1.055,0.804-2.11,1.607-3.165,2.411c1.528,0.587,2.861,1.547,4.224,2.427c1.75,1.129,3.563-0.408,3.762-2.159
					c0.147-1.296,0.088-7.897-0.19-8.02c1.933,0.85,4.272-0.523,3.672-2.823c-0.363-0.73-0.422-1.478-0.179-2.242
					c-1.224,0.498-2.448,0.996-3.672,1.494c0.238,0.119,0.476,0.238,0.714,0.357c1.842,0.92,4.392-0.594,3.672-2.823
					c-1.522-4.718-0.774-9.785-1.607-14.643c-0.372-2.167-3.596-2.39-4.569-0.597c-3.546,6.534-0.829,15.153-5.178,21.071
					c1.553,0.42,3.106,0.841,4.659,1.262c0.002-5.691-1.283-11.315,0.625-16.835c0.945-2.735-3.161-4.319-4.569-1.926
					c-2.302,3.91-4.744,7.316-4.984,11.976c-0.166,3.224,4.835,3.208,5,0c0.186-3.605,2.54-6.461,4.301-9.453
					c-1.523-0.642-3.046-1.284-4.569-1.926c-2.067,5.981-0.801,11.993-0.803,18.165c-0.001,2.674,3.261,3.163,4.659,1.262
					c4.597-6.255,1.605-14.487,5.178-21.071c-1.523-0.199-3.046-0.398-4.569-0.597c0.841,4.905,0.059,9.843,1.607,14.643
					c1.224-0.941,2.448-1.882,3.672-2.823c-0.238-0.119-0.476-0.238-0.714-0.357c-1.507-0.753-3.121-0.095-3.672,1.494
					c-0.639,1.84-0.312,3.016,0.179,4.9c1.224-0.941,2.448-1.882,3.672-2.823c-9.02-3.966-6.77,7.366-7.333,12.337
					c1.254-0.72,2.508-1.439,3.762-2.159c-1.768-1.141-3.454-2.176-5.418-2.931c-1.489-0.572-3.241,0.891-3.165,2.411
					c0.06,1.19,0.119,2.381,0.179,3.571c1.637-0.222,3.274-0.443,4.911-0.665c-1.256-3.788-2.156-8.704-2.232-12.728
					c-0.037-1.918-2.089-3.083-3.762-2.159c-2.28,1.26-4.149,2.935-6.25,4.464c-2.398,1.746-5.372,2.158-8.153,2.962
					c-3.123,0.903-1.807,5.456,1.329,4.821c7.332-1.483,12.823-12.271,15.423-18.292c-1.523-0.642-3.046-1.284-4.569-1.926
					c-1.224,3.049-1.634,6.16-1.875,9.415c-0.198,2.684,3.364,3.131,4.659,1.262c2.606-3.764,1.235-10.407,4.788-13.244
					c-1.393-0.811-2.786-1.622-4.178-2.432c-1.413,6.459-5.473,11.389-8.855,16.903c-3.593,5.857-4.143,13.371-6.964,19.643
					c-1.328,2.951,2.408,5.138,4.317,2.523c4.415-6.043,5.896-13.268,10.859-18.958c-1.422-0.589-2.845-1.178-4.268-1.768
					c0.551,11.569-7.742,20.722-17.807,24.911C31.402,92.631,32.687,97.471,35.664,96.232L35.664,96.232z"/>
			</g>
		</g>
		<g>
			<g>
				<path d="M37.406,192.8c0.198-8.188,1.562-16.268,2.919-24.326c1.308-7.772,2.35-15.486,2.819-23.356
					c0.454-7.604,0.873-15.473,4.468-22.346c2.654-5.072,6.577-9.383,9.056-14.547c3.492-7.275,5.76-15.089,9.085-22.443
					c2.993-6.619,7.148-14.884,14.498-17.461c3.546-1.244,7.331-0.578,10.687,0.919c0.583,0.261,1.093-0.601,0.505-0.863
					c-3.385-1.511-7.056-2.221-10.695-1.255c-3.319,0.881-6.099,3.122-8.331,5.655c-5.477,6.216-8.528,14.431-11.451,22.058
					c-1.419,3.702-2.759,7.44-4.339,11.078c-2.017,4.644-5.087,8.595-7.808,12.836c-1.796,2.8-3.348,5.747-4.345,8.929
					c-1.106,3.524-1.521,7.319-1.868,10.983c-0.366,3.875-0.516,7.768-0.789,11.649c-0.287,4.083-0.876,8.142-1.514,12.183
					c-1.587,10.063-3.649,20.09-3.896,30.308C36.39,193.445,37.39,193.443,37.406,192.8L37.406,192.8z"/>
			</g>
		</g>
		<g>
			<g>
				<path d="M90.849,69.536c3.601-1.6,7.36-2.761,11.336-2.684c3.892,0.076,7.288,1.753,10.802,3.206
					c3.439,1.421,7.161,1.185,10.805,1.572c3.548,0.377,7.118,1.148,10.633,1.77c3.453,0.61,6.926,1.37,10.146,2.795
					c3.272,1.449,6.359,3.264,9.821,4.251c2.763,0.789,5.739,0.113,8.558,0.515c2.675,0.381,4.362,2.627,4.658,5.208
					c0.233,2.029-0.359,4.109-1.348,5.866c-1.114,1.979-2.843,3.167-4.935,3.94c-4.359,1.612-10.359,2.228-14.71,0.285
					c-0.583-0.261-1.092,0.601-0.504,0.863c4.743,2.119,11.015,1.468,15.77-0.291c4.233-1.566,6.852-5.613,6.763-10.125
					c-0.042-2.11-0.927-4.127-2.567-5.468c-1.999-1.634-4.765-1.448-7.194-1.432c-1.418,0.01-2.843,0.036-4.225-0.325
					c-1.962-0.514-3.815-1.376-5.635-2.256c-3.09-1.494-6.082-2.895-9.418-3.758c-3.864-1-7.842-1.49-11.767-2.188
					c-2.13-0.379-4.23-0.7-6.391-0.859c-2.359-0.175-4.773-0.125-7.038-0.878c-1.871-0.622-3.597-1.623-5.462-2.271
					c-2.075-0.722-4.128-1.254-6.327-1.401c-4.261-0.283-8.436,1.095-12.275,2.802C89.755,68.934,90.265,69.796,90.849,69.536
					L90.849,69.536z"/>
			</g>
		</g>
		<g>
			<g>
				<path d="M85.122,83.002c3.412,6.357,9.282,11.592,16.589,12.554c2.936,0.387,5.917,0.563,8.877,0.458
					c2.432-0.087,5.414-0.287,7.354-1.936c0.492-0.418-0.219-1.122-0.707-0.707c-1.789,1.52-4.75,1.575-6.965,1.654
					c-2.698,0.096-5.413-0.094-8.091-0.41c-7.162-0.847-12.859-5.903-16.195-12.118C85.68,81.929,84.816,82.434,85.122,83.002
					L85.122,83.002z"/>
			</g>
		</g>
		<g>
			<g>
				<path d="M109.099,86.145c1.925,11.041,14.534,7.498,22.433,8.08c0.644,0.047,0.639-0.953,0-1
					c-7.404-0.545-19.658,3.039-21.468-7.345C109.952,85.245,108.989,85.515,109.099,86.145L109.099,86.145z"/>
			</g>
		</g>
		<g>
			<g>
				<path d="M127.837,90.121c3.983,5.725,11.96,4.249,17.681,6.706c0.585,0.251,1.096-0.609,0.504-0.863
					c-5.406-2.322-13.59-0.984-17.321-6.347C128.335,89.091,127.468,89.59,127.837,90.121L127.837,90.121z"/>
			</g>
		</g>
		<g>
			<g>
				<path d="M73.799,84.069c1.146,6.702,8.852,8.992,14.452,10.674c3.75,1.126,7.335,2.662,11.061,3.861
					c4.397,1.415,8.918,1.999,13.531,1.85c0.644-0.021,0.646-1.021,0-1c-4.409,0.143-8.678-0.41-12.896-1.698
					c-3.597-1.099-7.02-2.658-10.624-3.736c-5.449-1.629-13.431-3.612-14.561-10.216C74.655,83.168,73.691,83.438,73.799,84.069
					L73.799,84.069z"/>
			</g>
		</g>
		<g>
			<g>
				<path d="M76.655,109.353c3.903-0.264,7.813,0.235,11.701-0.314c0.636-0.09,0.365-1.054-0.266-0.965
					c-3.793,0.537-7.626,0.021-11.436,0.279C76.015,108.396,76.011,109.396,76.655,109.353L76.655,109.353z"/>
			</g>
		</g>
		<g>
			<g>
				<path d="M79.961,102.462c3.56,2.049,7.561,3.529,10.281,6.744c0.417,0.493,1.121-0.218,0.707-0.707
					c-2.778-3.283-6.848-4.809-10.483-6.9C79.906,101.276,79.403,102.141,79.961,102.462L79.961,102.462z"/>
			</g>
		</g>
		<g>
			<g>
				<path d="M87.926,109.353c7.572-0.3,14.958,2,22.547,1.284c3.49-0.329,6.946-0.946,10.457-1.048
					c3.448-0.1,6.673,0.657,9.719,2.275c5.312,2.822,8.852,8.04,10.821,13.599c1.214,3.424,2.544,9.4-1.812,11.188
					c-2.42,0.993-5.376,0.354-7.833-0.119c-2.729-0.526-5.399-1.161-8.198-1.099c-1.503,0.033-2.966,0.384-4.456,0.526
					c-1.545,0.146-3.105,0.056-4.634-0.192c-2.967-0.482-5.814-1.611-8.68-2.479c-0.619-0.188-0.881,0.778-0.266,0.965
					c3.148,0.953,6.28,2.207,9.564,2.611c3.55,0.438,6.95-0.62,10.485-0.387c3.284,0.217,6.461,1.271,9.74,1.585
					c2.221,0.214,4.578-0.023,6.334-1.52c3.012-2.566,1.923-7.635,0.886-10.855c-1.659-5.149-4.689-9.879-9.034-13.149
					c-2.584-1.945-5.815-3.372-9.035-3.773c-3.862-0.482-7.745,0.117-11.577,0.593c-4.062,0.503-7.969,0.531-12.04,0.065
					c-4.321-0.495-8.623-1.243-12.989-1.07C87.284,108.378,87.281,109.378,87.926,109.353L87.926,109.353z"/>
			</g>
		</g>
		<g>
			<g>
				<path d="M80.081,143.448c12.115,3.423,22.969-3.767,34.378-6.527c0.627-0.152,0.361-1.116-0.266-0.965
					c-11.196,2.71-21.959,9.887-33.847,6.527C79.725,142.308,79.461,143.272,80.081,143.448L80.081,143.448z"/>
			</g>
		</g>
		<g>
			<g>
				<path d="M107.097,133.044c-1.475-3.54-2.833-7.113-2.076-11.006c0.122-0.63-0.842-0.898-0.965-0.266
					c-0.796,4.095,0.519,7.798,2.076,11.537C106.376,133.896,107.345,133.639,107.097,133.044L107.097,133.044z"/>
			</g>
		</g>
		<g>
			<g>
				<path d="M111.496,132.331c-1.36-2.477-2.45-5.044-1.188-7.801c0.267-0.581-0.595-1.09-0.863-0.504
					c-1.431,3.121-0.373,5.968,1.188,8.809C110.943,133.4,111.807,132.896,111.496,132.331L111.496,132.331z"/>
			</g>
		</g>
		<g>
			<g>
				<path d="M81.564,138.405c3.728,0.852,7.494,1.492,11.271,2.076c0.63,0.097,0.901-0.866,0.266-0.965
					c-3.778-0.583-7.543-1.224-11.271-2.076C81.202,137.297,80.936,138.262,81.564,138.405L81.564,138.405z"/>
			</g>
		</g>
		<g>
			<g>
				<path d="M73.688,148.212c4.376,0.002,8.76,0.084,13.126-0.26c4.382-0.344,8.667-1.272,12.813-2.725
					c0.604-0.212,0.345-1.179-0.266-0.965c-4.073,1.427-8.249,2.323-12.548,2.689c-4.361,0.371-8.755,0.262-13.126,0.26
					C73.043,147.212,73.043,148.212,73.688,148.212L73.688,148.212z"/>
			</g>
		</g>
		<g>
			<g>
				<path d="M73.688,153.255c2.419-0.001,4.897,0.014,7.252-0.611c1.017-0.271,1.978-0.986,2.856-1.536
					c1.291-0.807,2.598-1.513,4.13-1.71c0.63-0.081,0.638-1.082,0-1c-2.356,0.304-4.113,1.604-6.125,2.746
					c-2.362,1.34-5.481,1.11-8.113,1.111C73.043,152.255,73.043,153.255,73.688,153.255L73.688,153.255z"/>
			</g>
		</g>
		<g>
			<g>
				<path d="M64.359,157.687c5.902,0.822,11.732-0.537,17.634-0.576c0.645-0.004,0.645-1.004,0-1
					c-5.799,0.038-11.571,1.419-17.369,0.611C63.995,156.634,63.723,157.598,64.359,157.687L64.359,157.687z"/>
			</g>
		</g>
		<g>
			<g>
				<path d="M82.476,194.149c-1.267-5.592-0.828-11.605,0.11-17.211c0.485-2.9,1.191-5.769,2.143-8.551
					c0.838-2.451,1.89-5.019,3.612-6.989c3.899-4.463,9.815-6.722,14.492-10.217c5.129-3.832,8.078-9.832,13.226-13.607
					c0.196-0.141,0.395-0.276,0.597-0.407c0.534-0.354,0.034-1.222-0.504-0.863c-5.305,3.525-8.247,9.508-13.149,13.49
					c-4.559,3.702-10.158,5.925-14.469,9.972c-3.75,3.521-5.273,9.2-6.356,14.054c-1.252,5.612-1.811,11.533-1.214,17.265
					c0.117,1.12,0.299,2.233,0.548,3.331C81.654,195.044,82.618,194.777,82.476,194.149L82.476,194.149z"/>
			</g>
		</g>
		<g>
			<g>
				<path d="M59.02,165.103c6.879,2.741,13.734,4.731,21.194,4.764c0.645,0.003,0.645-0.997,0-1
					c-7.375-0.031-14.132-2.02-20.928-4.729C58.686,163.899,58.428,164.866,59.02,165.103L59.02,165.103z"/>
			</g>
		</g>
		<g>
			<g>
				<path d="M92.925,151.702c4.374-2.251,7.105-6.152,10.483-9.57c0.454-0.459-0.253-1.166-0.707-0.707
					c-3.316,3.354-5.987,7.203-10.281,9.414C91.847,151.134,92.353,151.997,92.925,151.702L92.925,151.702z"/>
			</g>
		</g>
		<g>
			<g>
				<path d="M109.417,68.696c4.342-0.82,8.667-1.841,13.085-2.157c4.488-0.321,8.877,0.423,12.93,2.403
					c1.918,0.938,3.803,1.669,5.873,2.224c2.193,0.587,4.4,1.093,6.479,2.031c2.119,0.956,4.122,2.329,6.136,3.491
					c2.042,1.178,4.085,2.356,6.133,3.526c0.561,0.321,1.063-0.543,0.504-0.863c-2.047-1.17-4.09-2.348-6.132-3.526
					c-2.149-1.24-4.277-2.653-6.54-3.674c-2.013-0.908-4.188-1.392-6.314-1.949c-2.456-0.644-4.596-1.69-6.899-2.713
					c-8.267-3.669-17.067-1.354-25.52,0.243C108.518,67.852,108.787,68.815,109.417,68.696L109.417,68.696z"/>
			</g>
		</g>
		<g>
			<g>
				<path d="M168.062,87.333c2.782,1.722,6.104,2.481,8.685,4.546c1.464,1.171,2.284,2.853,2.008,4.746
					c-0.304,2.08-2.011,3.714-3.662,4.835c-3.675,2.496-8.68,2.674-12.927,1.972c-4.548-0.752-8.811-2.8-12.584-5.394
					c-0.532-0.367-1.032,0.5-0.504,0.863c4.105,2.823,8.802,4.987,13.777,5.642c4.677,0.615,9.793,0.09,13.631-2.862
					c3.007-2.313,4.515-6.236,1.999-9.482c-2.364-3.05-6.772-3.783-9.919-5.729C168.016,86.13,167.514,86.995,168.062,87.333
					L168.062,87.333z"/>
			</g>
		</g>
		<g>
			<g>
				<path d="M136.026,97.123c3.902,1.651,7.857,2.702,12.116,2.145c0.63-0.083,0.638-1.083,0-1
					c-4.076,0.534-7.873-0.426-11.612-2.008C135.944,96.011,135.434,96.872,136.026,97.123L136.026,97.123z"/>
			</g>
		</g>
		<g>
			<g>
				<path d="M124.457,100.385c4.342,2.541,10.999,1.469,14.844-1.561c0.506-0.399-0.207-1.102-0.707-0.707
					c-3.487,2.748-9.714,3.697-13.633,1.405C124.403,99.195,123.9,100.06,124.457,100.385L124.457,100.385z"/>
			</g>
		</g>
		<g>
			<g>
				<path d="M124.871,101.393c0.949,1.603,0.244,3.203-1.304,4.062c-0.189,0.104-0.298,0.356-0.23,0.564
					c0.331,1.026,0.608,2.053,1.314,2.891c0.416,0.494,1.12-0.218,0.707-0.707c-0.581-0.689-0.786-1.61-1.057-2.449
					c-0.077,0.188-0.153,0.376-0.23,0.564c2.026-1.123,2.883-3.372,1.663-5.429C125.406,100.334,124.541,100.837,124.871,101.393
					L124.871,101.393z"/>
			</g>
		</g>
		<g>
			<g>
				<path d="M110.603,109.261c-3.141-0.971-3.808-4.679-4.082-7.526c-0.062-0.636-1.062-0.642-1,0
					c0.322,3.339,1.183,7.367,4.816,8.491C110.955,110.416,111.217,109.451,110.603,109.261L110.603,109.261z"/>
			</g>
		</g>
		<g>
			<g>
				<path d="M106.021,101.641c4.048-0.043,9.072-1.467,11.111-5.291c0.304-0.569-0.56-1.074-0.863-0.505
					c-1.869,3.504-6.549,4.756-10.248,4.795C105.376,100.647,105.375,101.647,106.021,101.641L106.021,101.641z"/>
			</g>
		</g>
		<g>
			<g>
				<path d="M138.057,114.396c4.196-0.042,8.026-1.337,11.524-3.627c0.537-0.352,0.037-1.218-0.504-0.863
					c-3.358,2.198-6.99,3.45-11.021,3.49C137.412,113.402,137.411,114.402,138.057,114.396L138.057,114.396z"/>
			</g>
		</g>
		<g>
			<g>
				<path d="M146.066,110.837c6.579,0.604,14.465,0.405,19.634-4.301c0.478-0.435-0.231-1.14-0.707-0.707
					c-4.955,4.512-12.638,4.586-18.927,4.008C145.424,109.778,145.43,110.778,146.066,110.837L146.066,110.837z"/>
			</g>
		</g>
		<g>
			<g>
				<path d="M169.337,92.724c2.158-0.861,4.414-0.841,6.688-0.576c0.64,0.075,0.633-0.926,0-1c-2.357-0.275-4.72-0.279-6.954,0.612
					C168.479,91.996,168.737,92.963,169.337,92.724L169.337,92.724z"/>
			</g>
		</g>
		<g>
			<g>
				<path d="M168.257,91.591c0.068-0.054-0.165-0.112-0.21-0.135c-0.215-0.115-0.393-0.291-0.566-0.458
					c-0.465-0.447-1.173,0.26-0.707,0.707c0.584,0.561,1.424,1.198,2.19,0.593C169.47,91.899,168.757,91.196,168.257,91.591
					L168.257,91.591z"/>
			</g>
		</g>
		<g>
			<g>
				<path d="M126.546,134.603c-1.768-1.677-3.343-4.076-3.646-6.543c-0.43-3.511,3.563-2.323,5.531-1.52
					c-0.116-0.205-0.233-0.41-0.35-0.615c-1.111,4.125,2.085,7.876,5.273,10.057c0.533,0.365,1.033-0.502,0.504-0.863
					c-2.804-1.918-5.798-5.274-4.812-8.928c0.077-0.287-0.097-0.512-0.35-0.615c-2.323-0.948-6.407-1.98-6.811,1.619
					c-0.327,2.92,1.956,6.223,3.952,8.115C126.307,135.753,127.015,135.047,126.546,134.603L126.546,134.603z"/>
			</g>
		</g>
		<g>
			<g>
				<path d="M154.119,81.401c2.897,1.757,5.967,0.398,8.987-0.247c0.631-0.134,0.363-1.098-0.266-0.964
					c-2.715,0.579-5.6,1.934-8.218,0.347C154.07,80.203,153.568,81.068,154.119,81.401L154.119,81.401z"/>
			</g>
		</g>
		<g>
			<g>
				<path d="M83.344,66.546c-2.771,0.947-5.606,0.733-8.061-0.917c-2.438-1.638-4.021-4.376-4.995-7.083
					c-2.189-6.084-1.75-13.599,2.168-18.895c2.135-2.886,5.356-4.645,8.836-5.33c2.352-0.462,4.797-0.335,7.178-0.253
					c2.801,0.097,5.606,0.369,8.323,1.08c2.538,0.664,4.955,1.837,6.698,3.839c2.06,2.367,2.762,5.967,2.879,9.005
					c0.227,5.883-2.367,12.731-7.605,15.822c-2.478,1.462-5.331,2.296-8.139,2.836c-2.56,0.493-5.335,0.729-7.907,0.19
					c-0.629-0.132-0.896,0.832-0.266,0.964c4.733,0.993,10.218-0.135,14.591-2.026c2.196-0.95,4.18-2.17,5.712-4.028
					c1.906-2.31,3.201-5.078,3.962-7.962c1.378-5.222,0.852-12.116-3.11-16.147c-3.559-3.622-9.355-4.27-14.153-4.53
					c-4.274-0.232-8.586-0.286-12.531,1.594c-2.948,1.405-5.269,3.858-6.759,6.737c-2.942,5.682-2.78,12.891-0.315,18.703
					c2.363,5.574,7.619,9.463,13.76,7.362C84.216,67.303,83.956,66.336,83.344,66.546L83.344,66.546z"/>
			</g>
		</g>
		<g>
			<g>
				<path d="M121.493,64.868c-2.771,0.947-5.606,0.732-8.061-0.917c-2.438-1.638-4.021-4.376-4.995-7.083
					c-2.188-6.084-1.75-13.599,2.169-18.895c2.135-2.885,5.355-4.645,8.836-5.33c2.353-0.462,4.797-0.335,7.179-0.253
					c2.801,0.097,5.605,0.369,8.322,1.08c2.538,0.664,4.955,1.837,6.698,3.84c2.06,2.367,2.762,5.967,2.879,9.005
					c0.227,5.883-2.367,12.731-7.605,15.822c-2.478,1.462-5.33,2.296-8.139,2.836c-2.56,0.493-5.335,0.729-7.906,0.19
					c-0.629-0.132-0.896,0.832-0.266,0.964c4.732,0.993,10.218-0.135,14.59-2.025c2.195-0.949,4.18-2.17,5.712-4.028
					c1.906-2.311,3.202-5.079,3.963-7.963c1.377-5.222,0.851-12.115-3.111-16.146c-3.559-3.622-9.354-4.27-14.152-4.531
					c-4.274-0.232-8.586-0.286-12.53,1.594c-2.948,1.405-5.27,3.858-6.76,6.737c-2.942,5.682-2.78,12.891-0.316,18.704
					c2.363,5.573,7.619,9.463,13.76,7.362C122.365,65.625,122.104,64.658,121.493,64.868L121.493,64.868z"/>
			</g>
		</g>
		<g>
			<g>
				<path d="M86.443,42.204c-3.505,0.346-6.375,2.448-7.44,5.853c-0.919,2.936-0.113,6.399,2.307,8.371
					c3.252,2.649,8.094,1.653,11.476-0.167c4.066-2.188,7.449-7.664,3.359-11.532c-2.401-2.271-6.285-2.513-9.405-2.524
					c-0.645-0.002-0.645,0.998,0,1c4.412,0.016,11.956,1.322,9.948,7.539c-1.457,4.511-7.985,7.072-12.336,6.074
					c-3.289-0.754-4.964-3.931-4.668-7.124c0.333-3.59,3.27-6.145,6.76-6.489C87.079,43.142,87.084,42.141,86.443,42.204
					L86.443,42.204z"/>
			</g>
		</g>
		<g>
			<g>
				<path d="M124.279,39.255c-4.643,1.363-7.57,7.028-6.746,11.646c0.914,5.123,6.856,6.121,11.134,5.401
					c4.438-0.746,10.75-4.655,9.62-9.911c-1.18-5.488-8.716-5.731-12.94-7.132c-0.271-0.09-0.537-0.194-0.802-0.301
					c-0.599-0.241-0.856,0.727-0.266,0.964c3.719,1.495,8.857,1.348,11.766,4.41c4.423,4.658-2.373,9.62-6.523,10.759
					c-3.865,1.061-9.444,0.557-10.879-3.871c-1.341-4.136,1.787-9.793,5.902-11.002C125.162,40.038,124.899,39.073,124.279,39.255
					L124.279,39.255z"/>
			</g>
		</g>
		<g>
			<g>
				<path d="M29.623,158.575c7.114-2.933,5.16-11.633,4.816-17.686c-0.03-0.537-0.868-0.713-0.982-0.133
					c-0.917,4.647-3.793,9.002-9.01,8.828c0.144,0.251,0.288,0.502,0.432,0.752c1.939-2.918,3.786-5.912,4.888-9.259
					c1.111-3.375,1.117-6.937,0.502-10.407c-0.079-0.448-0.705-0.459-0.914-0.119c-0.94,1.526-1.858,3.111-3.208,4.318
					c-1.539,1.376-3.548,1.309-5.424,0.791c0.04,0.305,0.08,0.609,0.12,0.914c4.432-3.172,8.306-7.056,11.067-11.78
					c2.82-4.826,4.122-10.373,4.012-15.942c-0.008-0.433-0.541-0.667-0.854-0.354c-1.756,1.756-6.69,6.928-8.36,2.594
					c-0.076,0.188-0.153,0.376-0.229,0.564c3.483-1.881,7.784-3.465,10.2-6.779c1.069-1.468,1.371-3.464,1.69-5.211
					c0.377-2.063,0.606-4.154,0.816-6.239c0.046-0.456-0.566-0.633-0.854-0.354c-0.195,0.189-0.397,0.394-0.669,0.465
					c0.211,0.161,0.422,0.321,0.633,0.482c0-0.198,0-0.396,0-0.594c0-0.424-0.552-0.679-0.854-0.354
					c-1.553,1.676-3.763,1.674-5.522,0.297c-0.074,0.278-0.147,0.557-0.221,0.835c5.341-1.224,9.155-4.683,11.328-9.654
					c2.195-5.021,2.767-10.585,3.853-15.908c0.116-0.568-0.586-0.852-0.914-0.385c-1.285,1.832-2.434,4.267-5.072,3.33
					c0.074,0.278,0.147,0.557,0.221,0.835c4.628-3.921,8.274-8.733,11.104-14.082c1.354-2.561,2.499-5.23,3.55-7.928
					c1.202-3.083,2.056-6.334,3.455-9.333c1.273-2.73,3.036-5.197,4.467-7.843c0.813-1.502,1.239-3.176,1.741-4.799
					c0.622-2.007,1.278-4.018,2.257-5.883c0.802-1.526,2.122-3.386,4.086-3.1c0.214,0.031,0.456-0.014,0.564-0.229
					c2.815-5.592,6.624-12.445,13.654-12.646c1.495-0.043,2.994,0.108,4.488,0.136c2.009,0.039,4.011-0.199,6.01-0.368
					c1.911-0.162,3.781-0.172,5.68,0.124c1.584,0.247,3.092,0.805,4.606,1.304c2.865,0.945,5.718,0.765,8.681,0.513
					c3.11-0.265,7.06-0.882,9.673,1.25c0.881,0.719,1.132,1.892,1.767,2.791c0.633,0.897,1.607,1.852,2.581,2.384
					c0.732,0.4,1.634,0.43,2.433,0.609c1.53,0.342,3.04,0.986,4.448,1.663c3.021,1.451,5.525,3.649,7.339,6.463
					c1.913,2.971,2.993,6.416,3.973,9.782c0.604,2.079,1.175,4.155,1.841,6.217c0.741,2.295,1.377,4.605,1.48,7.028
					c0.111,2.595-0.374,5.224-0.361,7.833c0.013,2.661,0.128,5.315-0.021,7.974c0.167-0.167,0.333-0.333,0.5-0.5
					c-4.509,0.462-3.848,5.369-2.508,8.465c0.144-0.251,0.288-0.501,0.432-0.752c-0.632,0.018-1.416,0.045-1.829,0.607
					c-0.439,0.596-0.315,1.439-0.434,2.133c-0.107,0.63,0.856,0.9,0.965,0.266c0.063-0.375,0.104-0.749,0.129-1.129
					c0.052-0.787,0.4-0.854,1.169-0.876c0.41-0.012,0.581-0.409,0.432-0.752c-0.998-2.306-1.947-6.592,1.645-6.96
					c0.283-0.029,0.483-0.206,0.5-0.5c0.22-3.903-0.121-7.81,0.112-11.712c0.108-1.804,0.355-3.527,0.186-5.34
					c-0.155-1.663-0.586-3.288-1.065-4.882c-0.933-3.104-1.826-6.224-2.787-9.318c-0.734-2.363-1.604-4.694-2.779-6.875
					c-2.352-4.361-6.161-7.274-10.736-9.034c-1.164-0.448-2.335-0.783-3.562-0.994c-1.329-0.228-1.942-1.101-2.899-1.96
					c-0.798-0.716-0.989-1.842-1.631-2.669c-0.856-1.104-2.1-1.75-3.43-2.104c-4.585-1.225-9.4,0.777-14.02-0.056
					c-2.238-0.404-4.313-1.422-6.56-1.831c-2.899-0.527-5.797-0.159-8.704,0.082c-2.593,0.215-5.148-0.032-7.74-0.009
					c-2.31,0.021-4.412,0.709-6.329,1.987c-1.782,1.188-3.168,3.02-4.403,4.738c-1.449,2.017-2.67,4.201-3.786,6.417
					c0.188-0.077,0.376-0.153,0.564-0.229c-3.817-0.557-5.592,3.99-6.643,6.867c-0.685,1.875-1.198,3.807-1.84,5.696
					c-0.894,2.632-2.697,4.953-4.064,7.352c-1.591,2.792-2.522,5.786-3.595,8.796c-1.078,3.026-2.275,6.009-3.671,8.904
					c-2.872,5.957-6.762,11.324-11.82,15.61c-0.309,0.262-0.104,0.721,0.221,0.835c3.145,1.118,4.638-1.561,6.201-3.789
					c-0.305-0.128-0.609-0.257-0.914-0.385c-1.005,4.924-1.605,9.974-3.367,14.708c-1.93,5.187-5.649,8.902-11.116,10.156
					c-0.339,0.078-0.519,0.603-0.221,0.835c2.179,1.706,4.985,1.809,6.937-0.297c-0.285-0.118-0.569-0.236-0.854-0.354
					c0,0.198,0,0.396,0,0.594c0,0.329,0.319,0.564,0.633,0.482c0.439-0.114,0.79-0.411,1.11-0.722
					c-0.285-0.118-0.569-0.236-0.854-0.354c-0.189,1.877-0.407,3.75-0.717,5.611c-0.304,1.826-0.597,3.995-1.773,5.484
					c-2.385,3.019-6.433,4.495-9.72,6.271c-0.182,0.099-0.307,0.363-0.229,0.564c2.102,5.458,7.637,0.24,10.031-2.152
					c-0.285-0.118-0.569-0.235-0.854-0.354c0.104,5.319-1.12,10.472-3.701,15.13c-2.613,4.717-6.526,8.61-10.883,11.729
					c-0.339,0.242-0.327,0.791,0.12,0.914c2.039,0.562,4.083,0.596,5.878-0.641c1.722-1.185,2.813-3.192,3.882-4.93
					c-0.305-0.039-0.609-0.079-0.914-0.119c0.611,3.455,0.489,6.865-0.612,10.208c-1.031,3.132-2.866,5.961-4.677,8.688
					c-0.219,0.329,0.074,0.74,0.432,0.752c5.647,0.188,8.971-4.475,9.974-9.562c-0.327-0.044-0.655-0.089-0.982-0.133
					c0.308,5.424,2.398,14.05-4.082,16.721C28.77,157.853,29.027,158.82,29.623,158.575L29.623,158.575z"/>
			</g>
		</g>
		<g>
			<g>
				<path d="M29.49,159.187c4.57-0.093,9.491-2.985,12-6.773c-0.311-0.084-0.621-0.168-0.932-0.252
					c0.097,1.449,0.83,0.863,1.85,1.076c0.629,0.131,0.897-0.833,0.266-0.965c-0.257-0.054-0.418-0.077-0.679-0.075
					c-0.123,0.016-0.245,0.033-0.367,0.054c-0.248,0.091-0.271,0.061-0.07-0.09c-0.033-0.501-0.651-0.677-0.932-0.252
					c-2.31,3.486-6.936,6.191-11.137,6.277C28.846,158.199,28.845,159.199,29.49,159.187L29.49,159.187z"/>
			</g>
		</g>
		<g>
			<g>
				<path d="M90.165,158.05c1.36,3.151,3.667,5.492,6.647,7.148c2.948,1.638,6.252,2.524,9.373,3.76
					c0.32,0.127,0.615-0.188,0.633-0.482c0.242-4.101-0.874-8.264-0.018-12.326c-0.279,0.073-0.558,0.147-0.836,0.221
					c4.86,5.366,13.261,7.229,20.229,7.266c0.285,0.002,0.484-0.229,0.5-0.5c0.259-4.356-0.276-8.696-0.297-13.051
					c-0.284,0.118-0.569,0.235-0.854,0.354c4.284,3.884,9.827,5.158,15.481,5.188c0.284,0.002,0.484-0.229,0.5-0.5
					c0.214-3.753-1.419-7.248-1.483-10.975c-0.211,0.161-0.422,0.321-0.633,0.482c1.767,0.293,3.522,0.586,5.309,0.297
					c0.288-0.047,0.391-0.37,0.35-0.615c-1.777-10.603-0.901-21.527,0.891-32.066c0.106-0.631-0.856-0.9-0.965-0.266
					c-1.823,10.73-2.699,21.804-0.891,32.598c0.116-0.205,0.233-0.41,0.35-0.615c-1.596,0.259-3.201-0.035-4.777-0.297
					c-0.311-0.052-0.639,0.131-0.633,0.482c0.064,3.727,1.696,7.23,1.483,10.975c0.167-0.167,0.333-0.333,0.5-0.5
					c-5.381-0.028-10.689-1.191-14.774-4.895c-0.315-0.286-0.855-0.1-0.854,0.354c0.021,4.354,0.556,8.694,0.297,13.051
					c0.167-0.167,0.333-0.333,0.5-0.5c-6.711-0.035-14.839-1.803-19.521-6.973c-0.245-0.271-0.76-0.141-0.836,0.221
					c-0.877,4.165,0.23,8.392-0.018,12.592c0.211-0.161,0.422-0.321,0.633-0.482c-2.854-1.13-5.817-1.986-8.57-3.362
					c-3.097-1.548-5.474-3.892-6.852-7.085C90.773,156.955,89.912,157.465,90.165,158.05L90.165,158.05z"/>
			</g>
		</g>
		<g>
			<g>
				<path d="M56.28,69.104c-0.318,3.976-0.369,9.917,3.807,12c0.307,0.153,0.617,0.016,0.734-0.299
					c0.632-1.692,0.889-3.519,0.593-5.308c-0.304,0.128-0.609,0.257-0.914,0.385c1.344,1.893,3.394,3.158,5.771,2.917
					c0.27-0.027,0.502-0.207,0.5-0.5c-0.023-3.823-0.534-7.658,0.279-11.436c-0.245,0.1-0.489,0.199-0.734,0.299
					c1.188,0.822,2.562,1.173,3.856,1.78c0.334,0.157,0.753-0.027,0.752-0.432c-0.001-1.507-0.044-3.008-0.662-4.406
					c-0.144,0.251-0.288,0.501-0.432,0.752c0.42-0.037,0.74-0.101,1.109-0.31c0.396-0.225,0.551-0.696,0.923-0.945
					c0.534-0.355,0.034-1.222-0.505-0.863c-0.557,0.371-0.772,1.052-1.527,1.118c-0.402,0.035-0.591,0.392-0.432,0.752
					c0.539,1.219,0.523,2.593,0.525,3.901c0.251-0.144,0.501-0.288,0.752-0.432c-1.29-0.605-2.673-0.961-3.856-1.78
					c-0.258-0.179-0.67-0.002-0.734,0.299c-0.833,3.873-0.339,7.783-0.315,11.702c0.167-0.167,0.333-0.333,0.5-0.5
					c-2.02,0.205-3.756-0.799-4.908-2.422c-0.337-0.474-1.007-0.179-0.914,0.385c0.266,1.609-0.028,3.263-0.593,4.777
					c0.245-0.1,0.489-0.199,0.734-0.299c-3.812-1.901-3.601-7.53-3.312-11.137C57.332,68.461,56.332,68.466,56.28,69.104
					L56.28,69.104z"/>
			</g>
		</g>
		<g>
			<g>
				<path d="M138.761,61.524c0.292,1.812,0.561,3.206,2.426,3.909c-0.1-0.245-0.199-0.489-0.299-0.734
					c-0.355,0.461-0.534,1.022-0.889,1.483c-0.222,0.288,0.075,0.794,0.432,0.752c0.508-0.059,0.978-0.238,1.483-0.297
					c-0.161-0.211-0.321-0.422-0.482-0.633c-0.257,0.877,0.191,1.642,0.278,2.506c0.04,0.401,0.389,0.592,0.752,0.432
					c0.86-0.378,1.808-0.512,2.67-0.89c-0.25-0.144-0.501-0.288-0.752-0.432c0.1,0.822,0.522,1.544,0.594,2.373
					c0.025,0.299,0.21,0.463,0.5,0.5c0.437,0.116,0.847,0.291,1.23,0.525c0.565,0.309,1.07-0.554,0.504-0.863
					c-0.598-0.327-1.059-0.575-1.734-0.662c0.167,0.167,0.333,0.333,0.5,0.5c-0.072-0.834-0.495-1.557-0.594-2.373
					c-0.048-0.398-0.383-0.594-0.752-0.432c-0.861,0.377-1.808,0.511-2.67,0.89c0.25,0.144,0.501,0.288,0.752,0.432
					c-0.072-0.719-0.521-1.533-0.313-2.241c0.084-0.286-0.157-0.67-0.482-0.633c-0.508,0.059-0.978,0.238-1.483,0.297
					c0.144,0.251,0.288,0.501,0.432,0.752c0.355-0.461,0.534-1.022,0.889-1.483c0.214-0.278-0.031-0.634-0.299-0.734
					c-1.459-0.551-1.509-1.858-1.727-3.21C139.623,60.624,138.659,60.894,138.761,61.524L138.761,61.524z"/>
			</g>
		</g>
		<g>
			<path d="M87.333,45.967c-12.458,7.713,8.899,13.052,4.45,0.89c-0.593,0.593-2.373,0.89-2.966,1.483c0-1.187-0.89-1.78-1.187-2.67
				c-0.593,0-0.89,0.296-1.483,0.593"/>
			<g>
				<path d="M87.081,45.535c-1.831,1.15-4.452,3.038-4.182,5.535c0.189,1.753,1.839,2.821,3.406,3.248
					c1.751,0.478,3.758,0.23,5.174-0.952c1.953-1.63,1.538-4.531,0.786-6.641c-0.132-0.371-0.538-0.471-0.835-0.221
					c-0.854,0.717-2.099,0.753-2.966,1.483c0.285,0.118,0.569,0.236,0.854,0.354c-0.085-1.147-0.792-1.788-1.205-2.803
					c-0.078-0.193-0.246-0.391-0.482-0.367c-0.674,0.069-1.144,0.342-1.736,0.661c-0.567,0.306-0.062,1.169,0.505,0.863
					c0.394-0.212,0.767-0.477,1.231-0.524c-0.161-0.123-0.321-0.245-0.482-0.367c0.354,0.872,1.096,1.567,1.168,2.537
					c0.034,0.451,0.512,0.641,0.854,0.354c0.853-0.718,2.099-0.754,2.966-1.483c-0.278-0.074-0.557-0.147-0.835-0.221
					c0.623,1.751,1.097,4.027-0.356,5.509c-1.042,1.062-2.758,1.203-4.138,0.912c-1.255-0.264-2.646-1.01-2.911-2.372
					c-0.392-2.017,2.315-3.776,3.69-4.64C88.13,46.057,87.628,45.191,87.081,45.535L87.081,45.535z"/>
			</g>
		</g>
		<g>
			<path d="M125.005,45.67c-5.636,5.636,4.747,9.492,5.934,1.187c-2.67,3.856-3.56-1.187-6.526-1.187"/>
			<g>
				<path d="M124.651,45.317c-1.033,1.067-2.026,2.493-1.771,4.062c0.203,1.246,1.107,2.105,2.249,2.545
					c3.351,1.291,5.828-2.027,6.292-4.934c0.09-0.566-0.573-0.855-0.914-0.385c-0.41,0.564-1.042,1.471-1.85,1.102
					c-0.504-0.229-0.911-0.703-1.309-1.074c-0.846-0.789-1.749-1.407-2.937-1.462c-0.645-0.03-0.642,0.97,0,1
					c1.621,0.076,2.44,1.667,3.74,2.399c1.35,0.761,2.483-0.448,3.218-1.46c-0.305-0.128-0.609-0.257-0.914-0.385
					c-0.38,2.382-1.973,4.989-4.755,4.33c-0.845-0.2-1.551-0.795-1.797-1.634c-0.373-1.271,0.64-2.555,1.454-3.396
					C125.807,45.561,125.101,44.853,124.651,45.317L124.651,45.317z"/>
			</g>
		</g>
		<g>
			<g>
				<path d="M73.877,30.283c2.227-4.648,7.883-7.236,12.663-8.249c4.935-1.045,10.827-0.077,12.64,5.281
					c0.514,1.518,2.93,0.867,2.411-0.665c-2.2-6.499-8.753-8.179-14.947-7.17c-5.604,0.913-12.354,4.176-14.925,9.542
					C71.025,30.467,73.181,31.736,73.877,30.283L73.877,30.283z"/>
			</g>
		</g>
		<g>
			<g>
				<path d="M112.736,28.8c2.074-3.512,5.817-5.941,9.824-6.593c1.809-0.294,3.719,0.009,5.292,0.952
					c1.903,1.142,2.86,3.27,3.363,5.342c0.38,1.566,2.79,0.901,2.41-0.665c-1.252-5.166-5.252-8.612-10.681-8.172
					c-5.004,0.405-9.83,3.578-12.367,7.874C109.756,28.93,111.918,30.187,112.736,28.8L112.736,28.8z"/>
			</g>
		</g>
		<g>
			<g>
				<path d="M85.017,32.083c1.469-1.216,2.669-2.67,3.857-4.153c-0.285-0.118-0.569-0.236-0.854-0.354
					c-0.193,1.634,0.523,2.723,1.254,4.109c0.079,0.149,0.264,0.254,0.432,0.248c2.508-0.104,4.297-1.72,5.99-3.409
					c-0.278-0.162-0.557-0.324-0.835-0.486c-0.25,1.535-0.048,3.04-0.018,4.582c0.007,0.338,0.313,0.551,0.633,0.482
					c4.74-1.021,8.719-4.208,11.79-7.841c-0.278-0.162-0.557-0.324-0.836-0.486c-0.324,2.385,0.603,5.193,2.675,6.543
					c0.82,0.535,1.855,0.76,2.774,0.373c1.344-0.567,2.141-1.416,3.68-0.715c0.317,0.145,0.604,0.02,0.734-0.299
					c0.442-1.088,1.366-1.888,1.501-3.099c-0.251,0.144-0.502,0.288-0.752,0.432c1.203,0.753,2.595,1.785,4.065,1.889
					c1.52,0.108,2.365-0.871,2.898-2.188c-0.279,0.074-0.558,0.147-0.836,0.221c1.308,1.627,2.686,3.231,4.551,4.231
					c0.567,0.305,1.073-0.559,0.504-0.863c-1.789-0.96-3.095-2.515-4.348-4.075c-0.263-0.327-0.712-0.085-0.836,0.221
					c-1.119,2.767-3.796,0.765-5.495-0.299c-0.352-0.22-0.712,0.077-0.752,0.432c-0.114,1.021-1.083,1.893-1.466,2.833
					c0.245-0.1,0.49-0.199,0.734-0.299c-0.896-0.408-1.756-0.594-2.714-0.292c-0.81,0.255-1.455,0.962-2.309,1.077
					c-1.319,0.176-2.439-1.235-2.968-2.238c-0.558-1.056-0.84-2.431-0.678-3.618c0.059-0.434-0.472-0.918-0.836-0.486
					c-2.969,3.513-6.762,6.595-11.348,7.584c0.211,0.161,0.422,0.321,0.633,0.482c-0.028-1.443-0.251-2.878-0.018-4.316
					c0.076-0.468-0.454-0.868-0.835-0.486c-1.162,1.159-2.345,2.323-3.918,2.893c-1.036,0.375-1.098,0.163-1.57-0.661
					c-0.458-0.8-0.587-1.564-0.48-2.473c0.05-0.421-0.591-0.681-0.854-0.354c-1.188,1.483-2.388,2.938-3.857,4.153
					C83.812,31.787,84.524,32.49,85.017,32.083L85.017,32.083z"/>
			</g>
		</g>
		<g>
			<g>
				<path d="M84.757,31.729c-0.02,0.913-0.51,1.45-1.236,1.941c-0.531,0.359-0.031,1.226,0.505,0.863
					c1.025-0.694,1.703-1.521,1.731-2.804C85.771,31.084,84.771,31.085,84.757,31.729L84.757,31.729z"/>
			</g>
		</g>
		<g>
			<g>
				<path d="M55.39,72.664c-0.285,2.932-1.043,6.317-4.082,7.527c0.128,0.304,0.257,0.609,0.385,0.914
					c0.455-0.199,0.677-0.595,0.991-0.968c-0.278-0.162-0.557-0.324-0.835-0.486c-0.832,3.461-3.807,6.428-6.409,8.673
					c-2.428,2.095-6.445,5.08-9.884,4.03c-0.618-0.189-0.881,0.776-0.266,0.964c3.576,1.092,7.489-1.6,10.135-3.69
					c3.018-2.383,6.458-5.837,7.388-9.711c0.109-0.454-0.495-0.891-0.835-0.486c-0.199,0.236-0.532,0.7-0.789,0.812
					c-0.517,0.226-0.14,1.123,0.385,0.914c3.521-1.402,4.481-5.039,4.816-8.491C56.453,72.021,55.452,72.028,55.39,72.664
					L55.39,72.664z"/>
			</g>
		</g>
		<g>
			<g>
				<path d="M34.736,141.187c0.573-6.001,1.21-11.994,2.058-17.963c0.09-0.63-0.874-0.902-0.964-0.266
					c-0.86,6.058-1.513,12.139-2.094,18.229C33.675,141.828,34.676,141.822,34.736,141.187L34.736,141.187z"/>
			</g>
		</g>
		<g>
			<g>
				<path d="M38.871,137.462c1.988-9.217,6-17.698,9.492-26.4c0.241-0.599-0.727-0.856-0.964-0.266
					c-3.493,8.701-7.505,17.184-9.492,26.4C37.771,137.825,38.735,138.092,38.871,137.462L38.871,137.462z"/>
			</g>
		</g>
		<g>
			<g>
				<path d="M48.381,103.81c0.959-9.502,6.121-17.792,10.313-26.147c0.289-0.575-0.574-1.081-0.863-0.505
					c-4.282,8.532-9.471,16.951-10.45,26.652C47.316,104.451,48.317,104.444,48.381,103.81L48.381,103.81z"/>
			</g>
		</g>
		<g>
			<g>
				<path d="M107.343,154.489c0.302-0.664,0.295-1.417,0.593-2.076c0.264-0.582-0.598-1.091-0.863-0.504
					c-0.301,0.665-0.294,1.418-0.593,2.076C106.215,154.567,107.077,155.076,107.343,154.489L107.343,154.489z"/>
			</g>
		</g>
		<g>
			<g>
				<path d="M127.217,149.833c-0.93-1.861-1.844-3.728-2.67-5.637c-0.255-0.591-1.116-0.081-0.863,0.504
					c0.825,1.91,1.739,3.776,2.67,5.637C126.642,150.914,127.504,150.407,127.217,149.833L127.217,149.833z"/>
			</g>
		</g>
	</g>
</g>
</svg>
